<svg xmlns="http://www.w3.org/2000/svg" width="460" height="602.004" viewBox="0 0 460 602.004">
  <g id="coupon_bg" transform="translate(-218 -2522.999)">
    <g id="Group_4958" data-name="Group 4958" transform="translate(0)">
      <path id="Subtraction_2" data-name="Subtraction 2" d="M460,602l0,0-21-30-21,30-21-30-21,30-21-30-20.5,29.285L314,572l-21,30-21-30-21,30-21-30-21,30-21-30-21,30-21-30-20.5,29.285L105,572,84,602,63,572,42,602,21,572,0,602V452c.167,0,.33,0,.5,0C21.178,452,38,434.953,38,414S21.178,376,.5,376c-.188,0-.352,0-.5,0V0L21,30,42,0H29.023L42,0V0h0L63,30,84,0H73.673L84,0l21,30L125.5.716,146,30,167,0h-5.09L167,0l0,0h0l21,30L209,0h-2.44L209,0l0,0h0l21,30L251,0l21,30L293,0l21,30L334.5.716,355,30,376,0l21,30L418,0l21,30L460,0V376.03a38.024,38.024,0,0,0,0,75.94V602Z" transform="translate(218 2523)" fill="#fff3eb"/>
    </g>
    <g id="Rectangle_883" data-name="Rectangle 883" transform="translate(278 2587)" fill="#fff3eb" stroke="#ff8939" stroke-width="1" stroke-dasharray="5 5">
      <rect width="340" height="478" stroke="none"/>
      <rect x="0.5" y="0.5" width="339" height="477" fill="none"/>
    </g>
    <line id="Line_4" data-name="Line 4" x2="339" transform="translate(278.5 2937.5)" fill="none" stroke="#ff8939" stroke-width="1" stroke-dasharray="5 5"/>
  </g>
</svg>
