<svg xmlns="http://www.w3.org/2000/svg" width="92.4" height="96.297" viewBox="0 0 92.4 96.297">
  <g id="discount_ic" transform="translate(-10.359 0.002)">
    <path id="Path_511" data-name="Path 511" d="M98.3,49.394a2.822,2.822,0,0,1,0-2.494l3.592-7.347a8.359,8.359,0,0,0-3.607-11.1l-7.224-3.833A2.822,2.822,0,0,1,89.6,22.6l-1.413-8.055a8.36,8.36,0,0,0-9.443-6.861l-8.1,1.145a2.822,2.822,0,0,1-2.372-.771L62.395,2.373a8.359,8.359,0,0,0-11.672,0L44.845,8.059a2.823,2.823,0,0,1-2.372.771l-8.1-1.145a8.359,8.359,0,0,0-9.443,6.861L23.52,22.6a2.823,2.823,0,0,1-1.466,2.018L14.83,28.451a8.36,8.36,0,0,0-3.607,11.1L14.814,46.9a2.822,2.822,0,0,1,0,2.494l-3.592,7.347a8.359,8.359,0,0,0,3.607,11.1l7.224,3.833a2.822,2.822,0,0,1,1.466,2.018l1.413,8.055a8.354,8.354,0,0,0,8.241,6.946,8.588,8.588,0,0,0,1.2-.085l8.1-1.145a2.821,2.821,0,0,1,2.372.771l5.878,5.686a8.359,8.359,0,0,0,11.672,0l5.878-5.686a2.825,2.825,0,0,1,2.372-.771l8.1,1.145a8.359,8.359,0,0,0,9.443-6.861L89.6,73.693a2.823,2.823,0,0,1,1.466-2.018l7.224-3.833a8.36,8.36,0,0,0,3.607-11.1L98.3,49.394ZM45.451,23.154A10.182,10.182,0,1,1,35.268,33.336,10.194,10.194,0,0,1,45.451,23.154ZM40.2,68.437a2.777,2.777,0,1,1-3.927-3.927L72.922,27.856a2.777,2.777,0,0,1,3.927,3.927Zm27.471,4.7A10.182,10.182,0,1,1,77.849,62.957,10.194,10.194,0,0,1,67.666,73.139Z" transform="translate(0 0)" fill="#ff8939"/>
    <path id="Path_512" data-name="Path 512" d="M199.177,182.267a4.628,4.628,0,1,0,4.628,4.628A4.634,4.634,0,0,0,199.177,182.267Zm-22.216-29.621a4.628,4.628,0,1,0,4.628,4.628A4.633,4.633,0,0,0,176.961,152.646Z" transform="translate(-131.51 -123.938)" fill="#ff8939"/>
  </g>
</svg>
