<svg xmlns="http://www.w3.org/2000/svg" width="179.258" height="90.764" viewBox="0 0 179.258 90.764">
  <g id="footer_logo" transform="translate(983.64 -852.274)">
    <path id="Path_21" data-name="Path 21" d="M325.163,729.667H304.171l-3.791,10.025H290.71l19.882-50.552h8.255l19.8,50.552h-9.772Zm-2.271-7.75-8.255-21.652L306.3,721.917Z" transform="translate(-1274.35 183.882)" fill="#fff"/>
    <path id="Path_22" data-name="Path 22" d="M450.052,755.885h-10.71l-9.853-13.311-9.853,13.311H409.28l15.161-20.135-13.9-18.28h10.612l8.422,11.456,8.761-11.456h10.282l-13.9,18.027Z" transform="translate(-1342.147 167.579)" fill="#fff"/>
    <path id="Path_23" data-name="Path 23" d="M645.856,755.1v-22.41c0-5.222-3.509-8.842-9.172-8.842-5.569,0-9.622,3.62-9.622,8.842V755.1H617.71V728.841c0-7.891,9.172-12.741,19.42-12.741,10.71,0,18.079,6.315,18.079,16.339V755.1Z" transform="translate(-1461.325 168.366)" fill="#fff"/>
    <path id="Path_24" data-name="Path 24" d="M496.5,680.073c-2.141-3.907-7.036-14.673-26.028-17.882a151.069,151.069,0,0,0-19.626-1.6c7.28,3.74,11.562,5.3,17.9,10.68-4.912-.428-9.888-.377-14.371-3a7.618,7.618,0,0,1-3.4-4.593,3.753,3.753,0,0,0-1.589-2.048c-6.573-3.534-10.783-3-18.119-3.059-5.3-.047-10.6.613-15.9.694-9.019.146-18.046.3-27.064.056-11.931-.317-23.853-1.011-35.779-1.538-.218,0-.428.021-.33,0-4.822,0-6.261-.077-9.22-.077H337.21l-.09-.548c2.231-.9,4.449-1.838,6.7-2.686,8.65-3.264,17.322-6.469,25.968-9.759,13.387-5.1,27.244-5.595,41.247-5.012,10.706.428,21.078,2.532,30.863,7.334A44.512,44.512,0,0,1,448.41,651c-4.711-1.752-9.327-3.856-14.132-5.167a86.666,86.666,0,0,0-14.988-2.716c-5.019-.454-10.1-.1-15.344-.1.518.317.938.565,1.349.831,5.567,3.56,11.134,7.15,16.731,10.659a5.92,5.92,0,0,0,2.826.934c9.7.326,19.438.188,29.12.93,11.305.857,23.086,3.033,32.632,8.748C494.316,669.748,496.5,680.073,496.5,680.073Zm-80.153-23.837.283-.506c-2.372-1.941-4.676-3.98-7.126-5.8-6.946-5.175-14.611-8.2-23.163-7a106.111,106.111,0,0,0-14.766,3.714,77.031,77.031,0,0,0-7.545,3.1l-.039.758c3.8,1.2,7.537,2.695,11.4,3.526C388.923,656.956,402.657,656.236,416.343,656.236Z" transform="translate(-1300.878 212.763)" fill="#ff8939"/>
    <path id="Path_25" data-name="Path 25" d="M508.75,706.756c2.656-5.518,9.935-11.413,20.272-11.7,9,.094,17.539,4.91,20.971,12.788C537.749,696.692,524.408,694.606,508.75,706.756Z" transform="translate(-1399.024 180.712)" fill="#ff8939"/>
    <path id="Path_26" data-name="Path 26" d="M369.545,841.162l-2-2.682h-2.588v2.669H363.14V832h4.027a5.749,5.749,0,0,1,2.215.39,3.2,3.2,0,0,1,1.448,1.127,3,3,0,0,1,.506,1.744,2.947,2.947,0,0,1-.54,1.778,3.162,3.162,0,0,1-1.547,1.114l2.253,3Zm-.66-7.253a2.93,2.93,0,0,0-1.8-.471h-2.142v3.654h2.142a2.9,2.9,0,0,0,1.8-.48,1.611,1.611,0,0,0,.617-1.354,1.594,1.594,0,0,0-.617-1.349Z" transform="translate(-1315.762 101.744)" fill="#fff"/>
    <path id="Path_27" data-name="Path 27" d="M387,832h1.816v9.164H387Z" transform="translate(-1329.403 101.742)" fill="#fff"/>
    <path id="Path_28" data-name="Path 28" d="M397.41,832h4.284a6.467,6.467,0,0,1,2.785.57,4.417,4.417,0,0,1,1.889,1.611,4.648,4.648,0,0,1,0,4.8,4.416,4.416,0,0,1-1.889,1.611,6.468,6.468,0,0,1-2.785.57H397.41Zm4.194,7.711a4.395,4.395,0,0,0,1.894-.386,2.9,2.9,0,0,0,1.259-1.1,3.328,3.328,0,0,0,0-3.311,2.9,2.9,0,0,0-1.259-1.1,4.4,4.4,0,0,0-1.894-.385h-2.378v6.285Z" transform="translate(-1335.356 101.744)" fill="#fff"/>
    <path id="Path_29" data-name="Path 29" d="M431.709,839.737v1.427H424.37V832h7.124v1.427h-5.308v2.382H430.9v1.4h-4.713v2.528Z" transform="translate(-1350.77 101.742)" fill="#fff"/>
    <path id="Path_30" data-name="Path 30" d="M457.526,837.929v3.234h-1.821v-3.209L451.85,832h1.945l2.866,4.464,2.9-4.464h1.774Z" transform="translate(-1366.483 101.742)" fill="#fff"/>
    <path id="Path_31" data-name="Path 31" d="M476.774,840.511a4.712,4.712,0,0,1-1.889-1.692,4.593,4.593,0,0,1,0-4.828,4.674,4.674,0,0,1,1.889-1.692,6.28,6.28,0,0,1,5.394,0,4.712,4.712,0,0,1,1.889,1.684,4.623,4.623,0,0,1,0,4.845,4.713,4.713,0,0,1-1.889,1.684A6.28,6.28,0,0,1,476.774,840.511Zm4.46-1.285a3.174,3.174,0,0,0,0-5.616,3.984,3.984,0,0,0-3.526,0,3.175,3.175,0,0,0,0,5.616A3.985,3.985,0,0,0,481.234,839.225Z" transform="translate(-1379.261 101.919)" fill="#fff"/>
    <path id="Path_32" data-name="Path 32" d="M504.251,840.23a4,4,0,0,1-1.131-3.059V832h1.816v5.107q0,2.695,2.489,2.695t2.476-2.695V832h1.786v5.171a4.019,4.019,0,0,1-1.122,3.059,5.206,5.206,0,0,1-6.315,0Z" transform="translate(-1395.796 101.742)" fill="#fff"/>
    <path id="Path_33" data-name="Path 33" d="M535.455,841.162l-2-2.682h-2.583v2.669H529.05V832h4.027a5.77,5.77,0,0,1,2.219.39,3.213,3.213,0,0,1,1.444,1.127,3,3,0,0,1,.505,1.744,2.947,2.947,0,0,1-.54,1.778,3.17,3.17,0,0,1-1.542,1.114l2.249,3Zm-.655-7.253a2.939,2.939,0,0,0-1.8-.471h-2.142v3.654H533a2.91,2.91,0,0,0,1.8-.48,1.62,1.62,0,0,0,.613-1.354,1.6,1.6,0,0,0-.608-1.349Z" transform="translate(-1410.622 101.744)" fill="#fff"/>
    <path id="Path_34" data-name="Path 34" d="M574.978,832l-3.243,9.164h-1.928l-2.42-6.782-2.459,6.782h-1.945L559.74,832h1.889l2.433,6.966L566.59,832h1.679l2.476,7,2.5-7Z" transform="translate(-1428.171 101.742)" fill="#fff"/>
    <path id="Path_35" data-name="Path 35" d="M602.559,839.043h-4.892l-.964,2.121H594.83l4.4-9.164h1.786l4.421,9.164h-1.9Zm-.6-1.337-1.846-3.993-1.829,4.006Z" transform="translate(-1448.233 101.742)" fill="#fff"/>
    <path id="Path_36" data-name="Path 36" d="M623.426,837.929v3.234h-1.821v-3.209L617.75,832H619.7l2.875,4.464L625.461,832h1.791Z" transform="translate(-1461.337 101.742)" fill="#fff"/>
    <path id="Path_37" data-name="Path 37" d="M530.038,714.14a20.208,20.208,0,1,0,20.208,20.207,20.208,20.208,0,0,0-20.208-20.207Zm-15.47,17.595.214.068a73.445,73.445,0,0,1,7.42,3.641,1.906,1.906,0,0,1,.857,2.571,72.382,72.382,0,0,1-3.916,7.411l-.077.111A15.615,15.615,0,0,1,514.568,731.735Zm8.187,16.506c.428-.471.857-.93,1.255-1.405a66.182,66.182,0,0,1,4.713-4.738,1.881,1.881,0,0,1,2.626,0,73.043,73.043,0,0,1,5.891,6.079.425.425,0,0,1,.056.094A15.53,15.53,0,0,1,522.755,748.241Zm16.061,1.161q-3.406-3.813-6.816-7.613a2.456,2.456,0,0,0-3.085-.69,2.91,2.91,0,0,0-.793.617q-3.723,4.126-7.416,8.273c-.158-.094-.313-.193-.467-.291l8.268-10.487a1.844,1.844,0,0,0-.137-2.609A1.392,1.392,0,0,0,527,736.49a3.11,3.11,0,0,0-1.551,1.4q-3.483,5.261-7,10.509c-.141-.116-.278-.24-.428-.36l1.594-2.746q1.992-3.427,3.984-6.88a2.481,2.481,0,0,0-1.144-3.59c-3.393-1.517-6.795-3-10.192-4.524.039-.18.081-.36.124-.535l9.961,3.68c.857.313,1.671.677,2.532.934a1.926,1.926,0,0,0,1.923-.223,1.427,1.427,0,0,0,.253-2.009,3.269,3.269,0,0,0-1.744-1.045c-4.083-1.131-8.14-2.292-12.235-3.427.069-.171.137-.343.21-.51l4.057.857,6.786,1.482a2.5,2.5,0,0,0,3.127-2.245q.565-5.436,1.118-10.886v-.133l.548-.043-.064,1.637q-.171,4.451-.351,8.907c-.034.917-.073,1.838-.111,2.755a1.971,1.971,0,0,0,.823,1.757,1.362,1.362,0,0,0,1.988-.4,3.255,3.255,0,0,0,.428-2.013c-.171-3.924-.317-7.853-.471-11.777l-.039-.857.544.043q.566,5.475,1.122,10.95a2.511,2.511,0,0,0,3.153,2.309l10.8-2.326q.111.257.206.514l-3.95,1.109-8.855,2.5a2.2,2.2,0,0,0-1.525,1.816,1.285,1.285,0,0,0,.938,1.23,3.029,3.029,0,0,0,2-.064c4.018-1.521,8.054-3,12.081-4.485.047.176.086.356.129.536l-2.733,1.208c-2.391,1.058-4.777,2.121-7.167,3.166a2.772,2.772,0,0,0-1.6,1.465,2.472,2.472,0,0,0,.171,2.288l5.569,9.6c-.137.124-.274.244-.428.36q-3.644-5.462-7.283-10.929c-.428-.625-1.448-1.529-2.433-1.062a1.458,1.458,0,0,0-.488.377,1.982,1.982,0,0,0,.218,2.523q4.083,5.205,8.183,10.393l-.463.287Zm-18.46-2.673a1.472,1.472,0,0,1,.116-.206l4.426-6.156.176-.231c.428-.561.673-.394,1.105,0,.18.176.077.428-.047.587-.308.454-.625.908-.951,1.349q-1.876,2.571-3.757,5.09a2.037,2.037,0,0,1-.176.193Zm6.615-9.087a.664.664,0,0,1,.656-.638.651.651,0,0,1,.656.66.66.66,0,0,1-.664.655.677.677,0,0,1-.647-.677Zm-12.038-7.634.351-1.067c.518.154,1.015.3,1.508.458q3.037.968,6.075,1.954l.163.056c.6.2.57.553.257,1.08-.124.214-.377.159-.587.094-.617-.184-1.238-.373-1.851-.578l-5.719-1.919Zm10.547,3.063a.655.655,0,1,1,.651.651.655.655,0,0,1-.651-.651Zm18.619-5.711c-.428.09-.814.171-1.208.266a68.327,68.327,0,0,1-7.206,1.208,1.911,1.911,0,0,1-2.142-1.572,74.145,74.145,0,0,1-1.161-8.14v-.313A15.6,15.6,0,0,1,544.1,727.361Zm-14.06,2.206a.66.66,0,0,1,.651.673.651.651,0,1,1-.651-.673Zm-.621-3.307q0-3.676.047-7.343v-.287h1.105c0,.094.021.176.021.261l.051,7.488v.347c-.034.561-.159.677-.711.656a.428.428,0,0,1-.484-.428,4.7,4.7,0,0,1-.026-.694Zm-1.667-7.467c-.06.613-.133,1.2-.176,1.782-.176,2.228-.621,4.421-1.011,6.619a1.9,1.9,0,0,1-2.2,1.619c-1.285-.171-2.57-.326-3.856-.553-1.465-.257-2.917-.587-4.374-.887a.739.739,0,0,1-.1-.043A15.523,15.523,0,0,1,527.75,718.792Zm17.4,11.216c-.758.261-1.5.523-2.236.767-1.632.544-3.269,1.075-4.9,1.611-.214.073-.428.137-.638.193-.428.111-.578,0-.711-.368s-.09-.634.326-.775q1.757-.6,3.521-1.169c1.285-.428,2.618-.818,3.929-1.225l.343-.1c.034.086.073.15.094.223.09.283.159.557.274.853ZM534.6,733.041a.651.651,0,1,0,0,.009Zm10.081,6.966a15.53,15.53,0,0,1-3.659,5.569c-.428-.741-.857-1.435-1.251-2.142q-1.414-2.712-2.776-5.454a1.876,1.876,0,0,1,.8-2.455,73.263,73.263,0,0,1,7.523-3.7l.21-.064a15.679,15.679,0,0,1-.848,8.251Zm-4.961,6.717-.9.664c-.326-.429-.638-.857-.938-1.251q-1.893-2.57-3.783-5.175-.056-.077-.116-.167a.608.608,0,0,1,.467-.994.719.719,0,0,1,.5.27q.771.985,1.5,2,1.594,2.228,3.17,4.468C539.643,746.588,539.668,746.639,539.72,746.725Zm-6.606-9.082a.659.659,0,1,1-.647-.651A.66.66,0,0,1,533.114,737.642Z" transform="translate(-1399.641 169.486)" fill="#ff8939"/>
    <path id="Path_38" data-name="Path 38" d="M556.168,757.985a2.489,2.489,0,1,0-.728,1.763A2.489,2.489,0,0,0,556.168,757.985Zm-2.489,1.212a1.212,1.212,0,1,1,1.212-1.212,1.212,1.212,0,0,1-1.212,1.212Z" transform="translate(-1423.28 145.895)" fill="#ff8939"/>
    <path id="Path_39" data-name="Path 39" d="M290.71,832v9.279h25.979V832Zm7.836,5.466h-5.869V835.8h5.869Zm8.1,0h-5.869V835.8h5.869Zm8.1,0H308.87V835.8h5.869Z" transform="translate(-1274.35 101.742)" fill="#fff"/>
    <path id="Path_40" data-name="Path 40" d="M648.65,832v9.279h25.979V832Zm7.827,5.475h-5.869V835.8h5.869Zm8.1,0H658.7V835.8h5.869Zm8.1,0h-5.878V835.8h5.869Z" transform="translate(-1479.01 101.742)" fill="#fff"/>
  </g>
</svg>
