<svg xmlns="http://www.w3.org/2000/svg" width="254.029" height="99.227" viewBox="0 0 254.029 99.227">
  <g id="footer_car" transform="translate(-212 -252)">
    <g id="Group_4912" data-name="Group 4912" transform="translate(212 252)">
      <g id="Group_4715" data-name="Group 4715" transform="translate(13.784 45.901)">
        <path id="Path_352" data-name="Path 352" d="M413.769,897.222c-1.17-.485-73.033-3.541-74.509-2.7s-150.768-5.646-149.743-5.646,4.56-17.688,4.56-17.688,14.289-10.518,15.626-11.617,173.517-.9,174.542.2,29.525,13.736,29.525,13.736Z" transform="translate(-189.511 -858.842)" fill="#9e4000"/>
      </g>
      <g id="Group_4716" data-name="Group 4716" transform="translate(13.784 45.901)" opacity="0.5">
        <path id="Path_353" data-name="Path 353" d="M413.769,897.222c-1.17-.485-73.033-3.541-74.509-2.7s-150.768-5.646-149.743-5.646,4.56-17.688,4.56-17.688,14.289-10.518,15.626-11.617,173.517-.9,174.542.2,29.525,13.736,29.525,13.736Z" transform="translate(-189.511 -858.842)"/>
      </g>
      <g id="Group_4717" data-name="Group 4717" transform="translate(9.099 10.744)">
        <path id="Path_354" data-name="Path 354" d="M724.279,770.549l-18.15,16.665,8.14,2.117,7.088-4.988,9.648-9.188-3.348-5.316Z" transform="translate(-706.129 -769.838)" fill="#455a64"/>
      </g>
      <g id="Group_4718" data-name="Group 4718" transform="translate(144.094 8.486)">
        <path id="Path_355" data-name="Path 355" d="M356.957,787.711s-31.485-20.3-42.69-23.59l-3.271,1.541,5.271,4.443,38.7,20.037Z" transform="translate(-310.995 -764.121)" fill="#455a64"/>
      </g>
      <g id="Group_4719" data-name="Group 4719" transform="translate(2.499 3.037)">
        <path id="Path_356" data-name="Path 356" d="M150.853,796.035l2.97-5.775-1.485-2.31v-8.415l3.3-4.125,6.1-.825,15.344-14.19-3.3-1.65-.825-1.98.99-1.815c19.634-3.63,76.063-4.455,90.747-4.62s29.2,5.445,29.2,5.445l-1.32,1.155s6.1,2.97,14.685,7.095S333.338,779.7,333.338,779.7l6.435-.66c33.164,2.475,46.694,9.24,50.984,11.22s9.4,14.025,9.4,14.025c1.32,2.859-.99,17.984-.99,17.984s-13.695,6.435-14.19,6.435c-.108,0-2.718-.047-6.729-.121a24.85,24.85,0,1,0-49.19-.9l-86.636-1.121-26.081-2.844a24.84,24.84,0,0,0-48.867-5.329l-14.314-1.561-4.125-5.115Z" transform="translate(-149.037 -750.327)" fill="#ff8939"/>
      </g>
      <g id="Group_4720" data-name="Group 4720" transform="translate(230.325 74.087)">
        <path id="Path_357" data-name="Path 357" d="M172.742,930.2s-.889,5.987-2.379,7.327-15.031,4.861-17.6,5a24.921,24.921,0,0,1-3.721,0l1.7-10.969Z" transform="translate(-149.038 -930.197)" fill="#263238"/>
      </g>
      <g id="Group_4721" data-name="Group 4721" transform="translate(68.493 70.431)">
        <path id="Path_358" data-name="Path 358" d="M441.921,924.6c0,.136-1.627,12.383-1.627,12.383L328.527,933.4l-2.054-12.458Z" transform="translate(-326.473 -920.941)" fill="#263238"/>
      </g>
      <g id="Group_4722" data-name="Group 4722" transform="translate(75.198 62.118)" opacity="0.3">
        <path id="Path_359" data-name="Path 359" d="M444.3,907.727a40.376,40.376,0,0,0-13.421-3.871c-7.893-.951-74.173-4.469-78.548-3.9s-10.841,3.328-10.841,3.328Z" transform="translate(-341.494 -899.896)"/>
      </g>
      <g id="Group_4724" data-name="Group 4724" transform="translate(111.392 30.211)">
        <g id="Group_4723" data-name="Group 4723" transform="translate(0)">
          <path id="Path_360" data-name="Path 360" d="M504.837,873.191a.7.7,0,0,0,.01-.14c0-.1.005-.24.009-.412,0-.374.009-.9.015-1.582,0-1.387.011-3.371.018-5.818,0-4.924-.011-11.705-.018-19.2a52.7,52.7,0,0,0-.237-5.475c-.156-1.763-.359-3.458-.57-5.069-.425-3.222-.883-6.113-1.281-8.537l-.976-5.736-.262-1.56c-.033-.178-.045-.314-.059-.406a.716.716,0,0,0-.024-.139.7.7,0,0,0,0,.14c.007.092.012.232.038.411.044.359.12.888.224,1.567l.911,5.746c.379,2.427.822,5.318,1.236,8.538.206,1.61.4,3.3.557,5.062a53.223,53.223,0,0,1,.232,5.455c.031,7.491.059,14.274.079,19.2.02,2.447.036,4.432.047,5.818.01.677.018,1.208.023,1.582,0,.172.009.308.011.412A.7.7,0,0,0,504.837,873.191Z" transform="translate(-501.461 -819.121)" fill="#263238"/>
        </g>
      </g>
      <g id="Group_4725" data-name="Group 4725" transform="translate(25.27 35.016)" opacity="0.3">
        <path id="Path_361" data-name="Path 361" d="M419.945,840.11c.457.138-47.443-.943-55.886-2.1s-145.35-6.731-145.35-6.731S403.962,835.286,419.945,840.11Z" transform="translate(-218.709 -831.284)"/>
      </g>
      <g id="Group_4726" data-name="Group 4726" transform="translate(4.314 42.97)" opacity="0.3">
        <path id="Path_362" data-name="Path 362" d="M759.723,852.96s-2.39,5.558-5.048,6.1-8.988-1.864-8.988-1.864l2.97-5.775Z" transform="translate(-745.687 -851.421)"/>
      </g>
      <g id="Group_4727" data-name="Group 4727" transform="translate(5.674 34.941)">
        <path id="Path_363" data-name="Path 363" d="M746.929,832.028c-.057.594-6.276,8.294-7.464,8.633s-8.606-.113-9.251-.4a13.834,13.834,0,0,1-1.815-1.143l-1.485-2.31s-.28-5.787,0-5.719S747.042,830.859,746.929,832.028Z" transform="translate(-726.79 -831.094)" fill="#fff"/>
      </g>
      <g id="Group_4729" data-name="Group 4729" transform="translate(183.941 35.732)">
        <g id="Group_4728" data-name="Group 4728" transform="translate(0)">
          <path id="Path_364" data-name="Path 364" d="M233.417,844a.853.853,0,0,0-.141-.076l-.426-.2c-.375-.173-.933-.42-1.655-.729-1.446-.613-3.55-1.476-6.2-2.412-1.326-.465-2.784-.958-4.371-1.421A51.613,51.613,0,0,0,215.5,837.9c-3.661-.643-7.711-1.159-11.964-1.677-8.512-1.012-16.232-1.784-21.821-2.325l-6.621-.613-1.8-.152-.469-.034a.918.918,0,0,0-.16,0,.9.9,0,0,0,.158.026l.467.054,1.8.19,6.615.678c5.585.578,13.3,1.373,21.811,2.384,4.251.517,8.3,1.028,11.955,1.659a52.262,52.262,0,0,1,5.111,1.234c1.585.454,3.044.938,4.37,1.394,2.652.917,4.763,1.759,6.217,2.348l1.669.693.434.181A.954.954,0,0,0,233.417,844Z" transform="translate(-172.661 -833.097)" fill="#263238"/>
        </g>
      </g>
      <g id="Group_4730" data-name="Group 4730" transform="translate(226.788 43.842)">
        <path id="Path_365" data-name="Path 365" d="M179.263,856.565c.151.071,4.837,6.309,4.206,6.993s-7.992.841-10.568-.578a108.814,108.814,0,0,1-11.883-9.306C160.967,853.358,175.478,854.777,179.263,856.565Z" transform="translate(-161.019 -853.629)" fill="#fff"/>
      </g>
      <g id="Group_4731" data-name="Group 4731" transform="translate(239.024 61.91)" opacity="0.3">
        <path id="Path_366" data-name="Path 366" d="M164.043,899.851c-.051.007-9.553-1.418-11.852.6s-3.361,10.191-3.12,11.1,13.716-.078,13.705,0c-.006.039.4-2.762.713-5.629C163.814,902.921,164.043,899.851,164.043,899.851Z" transform="translate(-149.038 -899.368)"/>
      </g>
      <g id="Group_4732" data-name="Group 4732" transform="translate(239.431 62.299)">
        <path id="Path_367" data-name="Path 367" d="M169.846,900.9c.156.339-.97,7.611-2.164,8.655s-8.357,1.268-8.357,1.268,1.243-8.178,2.747-9.327S169.4,899.926,169.846,900.9Z" transform="translate(-159.325 -900.355)" fill="#263238"/>
      </g>
      <g id="Group_4736" data-name="Group 4736" transform="translate(37.349)">
        <g id="Group_4733" data-name="Group 4733" transform="translate(0.405 0.08)">
          <path id="Path_368" data-name="Path 368" d="M541.808,748.709a48.734,48.734,0,0,0-8.562-3.99c-5.428-2-27.844-2-39.4-1.795s-37.495.172-43.224,1.795a39.483,39.483,0,0,0-9.849,4.321l5.03-.416s4.967-2.827,15.574-2.985c5.629-.084,62.323-.5,65.339,0s5.613,1.235,5.613,1.235Z" transform="translate(-440.769 -742.839)" fill="#e0e0e0"/>
        </g>
        <g id="Group_4735" data-name="Group 4735" transform="translate(0)">
          <g id="Group_4734" data-name="Group 4734">
            <path id="Path_369" data-name="Path 369" d="M542.214,748.587l-9.474-1.878h0q-1.373-.38-2.966-.73-.8-.174-1.645-.337l-.863-.155c-.292-.051-.6-.052-.9-.081-.611-.055-1.233-.047-1.873-.074s-1.295-.033-1.965-.042q-2.012-.036-4.2-.051c-5.839-.048-12.606-.051-20.113-.037l-24.552.111-6.7.05-3.422.03-1.728.02-1.741.053a48.507,48.507,0,0,0-7.025.789,34.272,34.272,0,0,0-3.5.843,19.894,19.894,0,0,0-3.4,1.313l.042-.013-5.03.416.065.188c.17-.108.359-.225.55-.338a39.512,39.512,0,0,1,4.7-2.353,34.943,34.943,0,0,1,4.9-1.689,37.209,37.209,0,0,1,5.057-.7c1.688-.14,3.366-.243,5.03-.332,6.659-.324,13.092-.43,19.218-.524l17.4-.234c5.448-.062,10.524-.043,15.157.04s8.822.254,12.49.541c1.836.133,3.536.335,5.094.564l1.134.217c.184.039.369.065.546.113l.522.15a18,18,0,0,1,1.931.676,55.992,55.992,0,0,1,5.437,2.446c.605.315,1.059.567,1.363.74l.459.263s-.149-.1-.448-.281-.752-.438-1.354-.758a53.548,53.548,0,0,0-5.427-2.484,17.916,17.916,0,0,0-1.935-.687l-.527-.154c-.178-.049-.363-.076-.548-.115l-1.138-.222c-1.561-.235-3.264-.444-5.1-.582-3.671-.3-7.863-.471-12.5-.572s-9.711-.119-15.161-.065l-17.4.215c-6.127.088-12.561.19-19.225.512-1.666.089-3.346.191-5.037.331a37.427,37.427,0,0,0-5.091.7,35.111,35.111,0,0,0-4.928,1.7,39.635,39.635,0,0,0-4.723,2.365c-.193.114-.382.231-.558.343l-.349.223.414-.034,5.03-.416.02,0,.022-.011a19.772,19.772,0,0,1,3.355-1.295,34.009,34.009,0,0,1,3.477-.839,48.315,48.315,0,0,1,7-.788l1.735-.053,1.727-.021,3.422-.032,6.7-.054,24.551-.136c7.507-.025,14.273-.035,20.111,0q2.189.009,4.2.04c.67.008,1.325.016,1.964.037s1.266.015,1.867.068c.3.028.6.027.892.077l.861.152q.848.158,1.643.33c1.059.23,2.05.468,2.963.717h0Z" transform="translate(-440.769 -742.638)" fill="#263238"/>
          </g>
        </g>
      </g>
      <g id="Group_4737" data-name="Group 4737" transform="translate(0 63.472)">
        <path id="Path_370" data-name="Path 370" d="M755.778,921.266c-1.095-.124.193-13.891.8-13.862.453.023-19.74-4.123-20.6-4.08a1.319,1.319,0,0,0-1.039.608s-2.137,6.917-1.425,8.667,15.4,8.282,16.561,8.667S755.778,921.266,755.778,921.266Z" transform="translate(-733.373 -903.324)" fill="#263238"/>
      </g>
      <g id="Group_4739" data-name="Group 4739" transform="translate(52.812 9.875)">
        <g id="Group_4738" data-name="Group 4738" transform="translate(0)">
          <path id="Path_371" data-name="Path 371" d="M629.751,813.666a.571.571,0,0,0-.021-.127l-.082-.367-.332-1.407-1.233-5.17c-.516-2.184-1.129-4.785-1.758-7.682-.3-1.449-.647-2.974-.862-4.564a3.6,3.6,0,0,1-.034-.584.72.72,0,0,1,.081-.269l.113-.276.523-1.122,1.109-2.278c3.036-6.139,5.843-11.668,7.856-15.679l2.383-4.751.64-1.3.162-.339a.6.6,0,0,0,.049-.119.643.643,0,0,0-.068.109l-.18.33-.674,1.278-2.442,4.721c-2.047,3.995-4.875,9.513-7.911,15.654l-1.11,2.281-.524,1.129-.118.293a.852.852,0,0,0-.091.312,3.661,3.661,0,0,0,.035.628c.22,1.611.567,3.129.877,4.581.64,2.9,1.268,5.5,1.8,7.676s.982,3.94,1.3,5.155l.369,1.4c.042.151.076.27.1.362A.645.645,0,0,0,629.751,813.666Z" transform="translate(-625.225 -767.637)" fill="#263238"/>
        </g>
      </g>
      <g id="Group_4745" data-name="Group 4745" transform="translate(38.021 7.668)">
        <g id="Group_4740" data-name="Group 4740" transform="translate(0.395 0.394)">
          <path id="Path_372" data-name="Path 372" d="M471.341,790.86c-.307-.117-29.343-21.66-42.925-24.353a185.768,185.768,0,0,0-40.978-3.4c-13.7.352-55.028,2.927-55.028,2.927l-7.025,7.493,17.094,10.42Z" transform="translate(-325.385 -763.047)" fill="#455a64"/>
        </g>
        <g id="Group_4741" data-name="Group 4741" transform="translate(1.348 0.394)" opacity="0.2">
          <path id="Path_373" data-name="Path 373" d="M467.287,766.507c6.982,1.384,18.047,7.75,27.194,13.625-8.213-1.466-38.131-6.416-54.586-7.616-18.981-1.384-74.686,0-74.686,0l6.072-6.478s41.329-2.575,55.028-2.927A185.768,185.768,0,0,1,467.287,766.507Z" transform="translate(-365.209 -763.047)" fill="#fff"/>
        </g>
        <g id="Group_4742" data-name="Group 4742" transform="translate(66.116 0.818)">
          <path id="Path_374" data-name="Path 374" d="M499.609,764.12,506.634,788l-12.755-.708-1.527-23.169Z" transform="translate(-492.352 -764.12)" fill="#263238"/>
        </g>
        <g id="Group_4743" data-name="Group 4743" transform="translate(16.769 2.207)">
          <path id="Path_375" data-name="Path 375" d="M630.921,787.226c-.267-.267-1.424-10.952-1.424-10.952s4.808-8.637,4.541-8.637h-3.651s-9.171,19.054-8.993,19.054S630.921,787.226,630.921,787.226Z" transform="translate(-621.392 -767.637)" fill="#263238"/>
        </g>
        <g id="Group_4744" data-name="Group 4744" transform="translate(0)">
          <path id="Path_376" data-name="Path 376" d="M470.736,790.651a.395.395,0,0,0,.184-.744c-.083-.053-.491-.344-1-.708-19.515-13.911-34.048-22.1-42.029-23.682a186.832,186.832,0,0,0-41.065-3.4c-13.549.347-54.629,2.9-55.042,2.927a.4.4,0,0,0-.263.124l-7.025,7.493a.395.395,0,0,0,.083.608l17.093,10.42a.4.4,0,0,0,.184.057l128.862,6.907Zm-78.876-27.812a184.672,184.672,0,0,1,35.874,3.452c7.748,1.537,22.537,9.88,41.649,23.5L341.994,782.96,325.4,772.844l6.585-7.024c2.8-.174,41.747-2.58,54.857-2.917Q389.356,762.839,391.859,762.839Z" transform="translate(-324.384 -762.049)" fill="#e0e0e0"/>
        </g>
      </g>
      <g id="Group_4747" data-name="Group 4747" transform="translate(175.815 30.211)">
        <g id="Group_4746" data-name="Group 4746" transform="translate(0)">
          <path id="Path_377" data-name="Path 377" d="M337.486,875.2a.884.884,0,0,0,.022-.146c.011-.107.025-.248.043-.429.035-.389.084-.943.147-1.65.119-1.446.29-3.517.5-6.072.412-5.127.964-12.212,1.544-20.039.352-4.809.685-9.337.915-13.307a10.46,10.46,0,0,0,.012-1.475,10.062,10.062,0,0,0-.277-1.391,26.062,26.062,0,0,0-.825-2.5c-.6-1.561-1.2-2.925-1.748-4.081l0,.011c-.4-1.573-.708-2.821-.925-3.687l-.253-.976c-.029-.1-.051-.185-.069-.25a.378.378,0,0,0-.029-.083.343.343,0,0,0,.013.087l.053.254.223.983c.205.87.5,2.122.872,3.7v.005l0,.006c.535,1.157,1.127,2.525,1.71,4.084.29.78.574,1.61.806,2.494a9.984,9.984,0,0,1,.266,1.366,10.4,10.4,0,0,1-.019,1.447c-.245,3.964-.587,8.493-.939,13.3-.579,7.822-1.1,14.9-1.483,20.043-.183,2.557-.331,4.63-.435,6.076-.047.708-.083,1.263-.109,1.653-.009.18-.017.323-.023.43A.735.735,0,0,0,337.486,875.2Z" transform="translate(-336.546 -819.121)" fill="#263238"/>
        </g>
      </g>
      <g id="Group_4748" data-name="Group 4748" transform="translate(73.07 78.091)" opacity="0.3">
        <path id="Path_378" data-name="Path 378" d="M446.678,943.428l-104.777-3.1,1.853,2.286,99.658,3.189Z" transform="translate(-341.901 -940.332)"/>
      </g>
      <g id="Group_4804" data-name="Group 4804" transform="translate(183.892 53.396)">
        <g id="Group_4759" data-name="Group 4759" transform="translate(0 0)">
          <g id="Group_4758" data-name="Group 4758">
            <g id="Group_4757" data-name="Group 4757">
              <g id="Group_4756" data-name="Group 4756">
                <g id="Group_4755" data-name="Group 4755">
                  <g id="Group_4754" data-name="Group 4754">
                    <g id="Group_4753" data-name="Group 4753">
                      <g id="Group_4752" data-name="Group 4752">
                        <g id="Group_4751" data-name="Group 4751">
                          <g id="Group_4750" data-name="Group 4750">
                            <g id="Group_4749" data-name="Group 4749">
                              <ellipse id="Ellipse_23" data-name="Ellipse 23" cx="22.033" cy="22.033" rx="22.033" ry="22.033" transform="translate(1.802 45.831) rotate(-92.344)" fill="#263238"/>
                            </g>
                          </g>
                        </g>
                      </g>
                    </g>
                  </g>
                </g>
              </g>
            </g>
          </g>
        </g>
        <g id="Group_4770" data-name="Group 4770" transform="translate(0.885 22.541)">
          <g id="Group_4769" data-name="Group 4769" transform="translate(0)">
            <g id="Group_4768" data-name="Group 4768" transform="translate(0)">
              <g id="Group_4767" data-name="Group 4767">
                <g id="Group_4766" data-name="Group 4766">
                  <g id="Group_4765" data-name="Group 4765">
                    <g id="Group_4764" data-name="Group 4764">
                      <g id="Group_4763" data-name="Group 4763">
                        <g id="Group_4762" data-name="Group 4762">
                          <g id="Group_4761" data-name="Group 4761">
                            <g id="Group_4760" data-name="Group 4760">
                              <path id="Path_379" data-name="Path 379" d="M256.864,934.88c0,.019,0,.038,0,.057a22.033,22.033,0,0,1-44.062.636c0-.019,0-.038,0-.057Z" transform="translate(-212.806 -934.88)" fill="#263238"/>
                            </g>
                          </g>
                        </g>
                      </g>
                    </g>
                  </g>
                </g>
              </g>
            </g>
          </g>
        </g>
        <g id="Group_4781" data-name="Group 4781" transform="translate(7.447 7.447)">
          <g id="Group_4780" data-name="Group 4780" transform="translate(0)">
            <g id="Group_4779" data-name="Group 4779" transform="translate(0)">
              <g id="Group_4778" data-name="Group 4778">
                <g id="Group_4777" data-name="Group 4777">
                  <g id="Group_4776" data-name="Group 4776">
                    <g id="Group_4775" data-name="Group 4775">
                      <g id="Group_4774" data-name="Group 4774">
                        <g id="Group_4773" data-name="Group 4773">
                          <g id="Group_4772" data-name="Group 4772">
                            <g id="Group_4771" data-name="Group 4771">
                              <path id="Path_380" data-name="Path 380" d="M260.361,911.913a15.469,15.469,0,1,1-15.69-15.244A15.468,15.468,0,0,1,260.361,911.913Z" transform="translate(-229.425 -896.667)" fill="#fafafa"/>
                            </g>
                          </g>
                        </g>
                      </g>
                    </g>
                  </g>
                </g>
              </g>
            </g>
          </g>
        </g>
        <g id="Group_4792" data-name="Group 4792" transform="translate(7.447 7.447)">
          <g id="Group_4791" data-name="Group 4791" transform="translate(0)">
            <g id="Group_4790" data-name="Group 4790" transform="translate(0)">
              <g id="Group_4789" data-name="Group 4789">
                <g id="Group_4788" data-name="Group 4788">
                  <g id="Group_4787" data-name="Group 4787">
                    <g id="Group_4786" data-name="Group 4786">
                      <g id="Group_4785" data-name="Group 4785">
                        <g id="Group_4784" data-name="Group 4784">
                          <g id="Group_4783" data-name="Group 4783">
                            <g id="Group_4782" data-name="Group 4782">
                              <path id="Path_381" data-name="Path 381" d="M244.675,896.669a15.469,15.469,0,0,1,15.69,15.244l-30.934.446A15.469,15.469,0,0,1,244.675,896.669Z" transform="translate(-229.429 -896.667)" fill="#e0e0e0"/>
                            </g>
                          </g>
                        </g>
                      </g>
                    </g>
                  </g>
                </g>
              </g>
            </g>
          </g>
        </g>
        <g id="Group_4803" data-name="Group 4803" transform="translate(13.493 13.493)">
          <g id="Group_4802" data-name="Group 4802" transform="translate(0)">
            <g id="Group_4801" data-name="Group 4801" transform="translate(0)">
              <g id="Group_4800" data-name="Group 4800">
                <g id="Group_4799" data-name="Group 4799">
                  <g id="Group_4798" data-name="Group 4798">
                    <g id="Group_4797" data-name="Group 4797">
                      <g id="Group_4796" data-name="Group 4796">
                        <g id="Group_4795" data-name="Group 4795">
                          <g id="Group_4794" data-name="Group 4794">
                            <g id="Group_4793" data-name="Group 4793">
                              <path id="Path_382" data-name="Path 382" d="M263.576,921.26a9.423,9.423,0,1,1-9.557-9.286A9.422,9.422,0,0,1,263.576,921.26Z" transform="translate(-244.731 -911.974)" fill="#263238"/>
                            </g>
                          </g>
                        </g>
                      </g>
                    </g>
                  </g>
                </g>
              </g>
            </g>
          </g>
        </g>
      </g>
      <g id="Group_4860" data-name="Group 4860" transform="translate(22.469 53.397)">
        <g id="Group_4815" data-name="Group 4815" transform="translate(0 0)">
          <g id="Group_4814" data-name="Group 4814" transform="translate(0)">
            <g id="Group_4813" data-name="Group 4813" transform="translate(0)">
              <g id="Group_4812" data-name="Group 4812" transform="translate(0)">
                <g id="Group_4811" data-name="Group 4811" transform="translate(0)">
                  <g id="Group_4810" data-name="Group 4810" transform="translate(0)">
                    <g id="Group_4809" data-name="Group 4809">
                      <g id="Group_4808" data-name="Group 4808">
                        <g id="Group_4807" data-name="Group 4807" transform="translate(0)">
                          <g id="Group_4806" data-name="Group 4806">
                            <g id="Group_4805" data-name="Group 4805">
                              <ellipse id="Ellipse_24" data-name="Ellipse 24" cx="22.033" cy="22.033" rx="22.033" ry="22.033" transform="matrix(-0.041, -0.999, 0.999, -0.041, 1.8, 45.829)" fill="#263238"/>
                            </g>
                          </g>
                        </g>
                      </g>
                    </g>
                  </g>
                </g>
              </g>
            </g>
          </g>
        </g>
        <g id="Group_4826" data-name="Group 4826" transform="translate(0.884 22.54)">
          <g id="Group_4825" data-name="Group 4825" transform="translate(0)">
            <g id="Group_4824" data-name="Group 4824" transform="translate(0)">
              <g id="Group_4823" data-name="Group 4823">
                <g id="Group_4822" data-name="Group 4822">
                  <g id="Group_4821" data-name="Group 4821">
                    <g id="Group_4820" data-name="Group 4820">
                      <g id="Group_4819" data-name="Group 4819">
                        <g id="Group_4818" data-name="Group 4818">
                          <g id="Group_4817" data-name="Group 4817">
                            <g id="Group_4816" data-name="Group 4816">
                              <path id="Path_383" data-name="Path 383" d="M665.525,934.88c0,.019,0,.038,0,.057a22.033,22.033,0,0,1-44.061.636c0-.019,0-.038,0-.057Z" transform="translate(-621.467 -934.88)" fill="#263238"/>
                            </g>
                          </g>
                        </g>
                      </g>
                    </g>
                  </g>
                </g>
              </g>
            </g>
          </g>
        </g>
        <g id="Group_4837" data-name="Group 4837" transform="translate(7.446 7.446)">
          <g id="Group_4836" data-name="Group 4836" transform="translate(0)">
            <g id="Group_4835" data-name="Group 4835" transform="translate(0)">
              <g id="Group_4834" data-name="Group 4834">
                <g id="Group_4833" data-name="Group 4833">
                  <g id="Group_4832" data-name="Group 4832">
                    <g id="Group_4831" data-name="Group 4831">
                      <g id="Group_4830" data-name="Group 4830">
                        <g id="Group_4829" data-name="Group 4829">
                          <g id="Group_4828" data-name="Group 4828">
                            <g id="Group_4827" data-name="Group 4827">
                              <path id="Path_384" data-name="Path 384" d="M669.022,911.913a15.469,15.469,0,1,1-15.69-15.244A15.469,15.469,0,0,1,669.022,911.913Z" transform="translate(-638.086 -896.667)" fill="#fafafa"/>
                            </g>
                          </g>
                        </g>
                      </g>
                    </g>
                  </g>
                </g>
              </g>
            </g>
          </g>
        </g>
        <g id="Group_4848" data-name="Group 4848" transform="translate(7.446 7.446)">
          <g id="Group_4847" data-name="Group 4847" transform="translate(0)">
            <g id="Group_4846" data-name="Group 4846" transform="translate(0)">
              <g id="Group_4845" data-name="Group 4845">
                <g id="Group_4844" data-name="Group 4844">
                  <g id="Group_4843" data-name="Group 4843">
                    <g id="Group_4842" data-name="Group 4842">
                      <g id="Group_4841" data-name="Group 4841">
                        <g id="Group_4840" data-name="Group 4840">
                          <g id="Group_4839" data-name="Group 4839">
                            <g id="Group_4838" data-name="Group 4838">
                              <path id="Path_385" data-name="Path 385" d="M653.336,896.669a15.469,15.469,0,0,1,15.69,15.244l-30.934.446A15.469,15.469,0,0,1,653.336,896.669Z" transform="translate(-638.09 -896.667)" fill="#e0e0e0"/>
                            </g>
                          </g>
                        </g>
                      </g>
                    </g>
                  </g>
                </g>
              </g>
            </g>
          </g>
        </g>
        <g id="Group_4859" data-name="Group 4859" transform="translate(13.492 13.492)">
          <g id="Group_4858" data-name="Group 4858" transform="translate(0)">
            <g id="Group_4857" data-name="Group 4857" transform="translate(0)">
              <g id="Group_4856" data-name="Group 4856">
                <g id="Group_4855" data-name="Group 4855">
                  <g id="Group_4854" data-name="Group 4854">
                    <g id="Group_4853" data-name="Group 4853">
                      <g id="Group_4852" data-name="Group 4852">
                        <g id="Group_4851" data-name="Group 4851">
                          <g id="Group_4850" data-name="Group 4850">
                            <g id="Group_4849" data-name="Group 4849">
                              <path id="Path_386" data-name="Path 386" d="M672.237,921.26a9.423,9.423,0,1,1-9.557-9.286A9.423,9.423,0,0,1,672.237,921.26Z" transform="translate(-653.393 -911.974)" fill="#263238"/>
                            </g>
                          </g>
                        </g>
                      </g>
                    </g>
                  </g>
                </g>
              </g>
            </g>
          </g>
        </g>
      </g>
      <g id="Group_4862" data-name="Group 4862" transform="translate(181.229 47.913)">
        <g id="Group_4861" data-name="Group 4861" transform="translate(0)">
          <path id="Path_387" data-name="Path 387" d="M198.2,878.321a1.026,1.026,0,0,0,.073-.151l.195-.451a16.336,16.336,0,0,1,.884-1.662,20.66,20.66,0,0,1,4.608-5.124,30.148,30.148,0,0,1,8.9-5.022,30.475,30.475,0,0,1,12.36-1.7,32.784,32.784,0,0,1,12.062,3.264,34.1,34.1,0,0,1,8.4,5.843,37.305,37.305,0,0,1,2.7,2.876c.363.454.708.87,1.007,1.269s.572.763.8,1.1l.61.9.425.675.263.414a.084.084,0,1,0,.018-.011l-.246-.425c-.11-.186-.242-.419-.408-.687l-.6-.913c-.225-.343-.5-.707-.789-1.115s-.637-.825-1-1.283a36.287,36.287,0,0,0-2.69-2.908,33.858,33.858,0,0,0-8.416-5.908,32.75,32.75,0,0,0-12.131-3.3,30.482,30.482,0,0,0-12.439,1.724,30.012,30.012,0,0,0-8.926,5.089,20.3,20.3,0,0,0-4.584,5.195A11.238,11.238,0,0,0,198.2,878.321Z" transform="translate(-198.196 -863.934)" fill="#263238"/>
        </g>
      </g>
      <g id="Group_4864" data-name="Group 4864" transform="translate(18.333 45.85)">
        <g id="Group_4863" data-name="Group 4863" transform="translate(0)">
          <path id="Path_388" data-name="Path 388" d="M610.584,873.1a.99.99,0,0,0,.073-.151l.194-.45a16.313,16.313,0,0,1,.884-1.662,20.667,20.667,0,0,1,4.608-5.124,30.148,30.148,0,0,1,8.9-5.022,30.473,30.473,0,0,1,12.36-1.7,32.781,32.781,0,0,1,12.062,3.264,34.078,34.078,0,0,1,8.4,5.843,37.248,37.248,0,0,1,2.7,2.876c.363.454.708.87,1.007,1.269s.572.763.8,1.1l.61.9.424.675.263.414a1.041,1.041,0,0,0,.1.138.972.972,0,0,0-.078-.148l-.246-.425c-.11-.186-.241-.419-.408-.687l-.6-.913c-.225-.343-.5-.707-.789-1.115s-.637-.825-1-1.283a36.381,36.381,0,0,0-2.69-2.908,33.877,33.877,0,0,0-8.416-5.908,32.756,32.756,0,0,0-12.131-3.3,30.48,30.48,0,0,0-12.439,1.724,30,30,0,0,0-8.926,5.089,20.291,20.291,0,0,0-4.584,5.195A11.233,11.233,0,0,0,610.584,873.1Z" transform="translate(-610.584 -858.711)" fill="#263238"/>
        </g>
      </g>
      <g id="Group_4866" data-name="Group 4866" transform="translate(73.07 65.089)">
        <g id="Group_4865" data-name="Group 4865" transform="translate(0)">
          <path id="Path_389" data-name="Path 389" d="M344.812,907.42c0,.057,23.195,1.244,51.806,2.651s51.818,2.5,51.821,2.446-23.19-1.244-51.811-2.652S344.815,907.363,344.812,907.42Z" transform="translate(-344.812 -907.418)" fill="#263238"/>
        </g>
      </g>
      <g id="Group_4867" data-name="Group 4867" transform="translate(185.624 31.64)">
        <path id="Path_390" data-name="Path 390" d="M312.045,822.948l-6.639-.209,1.175.77Z" transform="translate(-305.406 -822.739)" fill="#263238"/>
      </g>
      <g id="Group_4879" data-name="Group 4879" transform="translate(157.213 25.442)">
        <g id="Group_4868" data-name="Group 4868" transform="translate(2.893 8.573)">
          <path id="Path_391" data-name="Path 391" d="M370.386,828.755c-.036.095,1.343,3.132,1.343,3.132l-1.028.962h-5.007s-3.946-4.207-3.813-4.093,8.29,0,8.29,0" transform="translate(-361.877 -828.752)" fill="#b15f27"/>
        </g>
        <g id="Group_4878" data-name="Group 4878" transform="translate(0)">
          <g id="Group_4873" data-name="Group 4873" transform="translate(0)">
            <g id="Group_4870" data-name="Group 4870" transform="translate(0.104 0.108)">
              <path id="Path_393" data-name="Path 393" d="M374.938,812.438a23.875,23.875,0,0,1-1.2,3.624,1.549,1.549,0,0,1-1.451,1h-9.327l-.381-6.586,3.1-3.157S373.795,810.153,374.938,812.438Z" transform="translate(-362.582 -807.322)" fill="#ffa96e"/>
            </g>
            <g id="Group_4872" data-name="Group 4872">
              <g id="Group_4871" data-name="Group 4871">
                <path id="Path_394" data-name="Path 394" d="M375.021,812.273a2.111,2.111,0,0,0-.444-.646,8.6,8.6,0,0,0-1.742-1.344,40.553,40.553,0,0,0-7.036-3.215l-.055-.02-.042.043-3.108,3.152-.031.031,0,.045c.06,1.043.122,2.13.186,3.239.067,1.147.133,2.269.2,3.348l.006.1h.1l5.958-.013,2.558-.01.587,0a2.49,2.49,0,0,0,.577-.042,1.627,1.627,0,0,0,.915-.579,3.1,3.1,0,0,0,.407-.883l.287-.8c.176-.5.322-.931.434-1.284a2.871,2.871,0,0,0,.252-1.115,4.888,4.888,0,0,1-.32,1.092l-.464,1.271-.3.795a3.043,3.043,0,0,1-.4.842,1.492,1.492,0,0,1-.843.519,2.375,2.375,0,0,1-.546.032l-.587,0-2.558-.01-5.958-.012.1.1c-.062-1.079-.126-2.2-.192-3.348-.065-1.109-.128-2.2-.189-3.238l-.029.077,3.1-3.162-.1.023a42.935,42.935,0,0,1,7.039,3.135,9.164,9.164,0,0,1,1.757,1.29A4.2,4.2,0,0,1,375.021,812.273Z" transform="translate(-362.561 -807.048)" fill="#263238"/>
              </g>
            </g>
          </g>
          <g id="Group_4875" data-name="Group 4875" transform="translate(0.207 3.196)">
            <g id="Group_4874" data-name="Group 4874" transform="translate(0)">
              <path id="Path_395" data-name="Path 395" d="M362.408,815.144a2.248,2.248,0,0,0,.473.14c.307.078.754.181,1.307.3,1.107.241,2.642.545,4.345.837s3.253.514,4.377.655c.562.07,1.018.122,1.333.151a.247.247,0,1,0,.011-.079l-1.323-.216c-1.117-.177-2.661-.423-4.362-.714s-3.238-.573-4.351-.777l-1.319-.236A2.284,2.284,0,0,0,362.408,815.144Z" transform="translate(-362.408 -815.14)" fill="#263238"/>
            </g>
          </g>
          <g id="Group_4877" data-name="Group 4877" transform="translate(10.094 9.779)">
            <g id="Group_4876" data-name="Group 4876" transform="translate(0)">
              <path id="Path_396" data-name="Path 396" d="M364.612,831.806a13.732,13.732,0,0,0,1.561,2.969,13.739,13.739,0,0,0-1.561-2.969Z" transform="translate(-364.606 -831.805)" fill="#263238"/>
            </g>
          </g>
        </g>
      </g>
      <g id="Group_4881" data-name="Group 4881" transform="translate(114.953 34.609)">
        <g id="Group_4880" data-name="Group 4880" transform="translate(0)">
          <path id="Path_397" data-name="Path 397" d="M402.372,830.26c0,.057,8.727.573,19.5,1.152s19.508,1,19.51.947-8.725-.573-19.5-1.152S402.375,830.2,402.372,830.26Z" transform="translate(-402.372 -830.255)" fill="#fff"/>
        </g>
      </g>
      <g id="Group_4883" data-name="Group 4883" transform="translate(72.927 32.318)">
        <g id="Group_4882" data-name="Group 4882" transform="translate(0)">
          <path id="Path_398" data-name="Path 398" d="M516.759,824.46c0,.056,8.021.532,17.919,1.06s17.928.912,17.932.856-8.019-.532-17.921-1.061S516.762,824.4,516.759,824.46Z" transform="translate(-516.759 -824.454)" fill="#fff"/>
        </g>
      </g>
      <g id="Group_4885" data-name="Group 4885" transform="translate(121.615 5.351)">
        <g id="Group_4884" data-name="Group 4884" transform="translate(0)">
          <path id="Path_399" data-name="Path 399" d="M429.787,756.189a.92.92,0,0,0,.218.042l.629.081,2.314.274c1.953.231,4.65.567,7.62.993s5.653.865,7.593,1.194l2.3.39.626.1a.913.913,0,0,0,.221.021.871.871,0,0,0-.213-.062l-.619-.138c-.538-.115-1.319-.271-2.286-.453-1.934-.366-4.615-.826-7.589-1.255s-5.675-.74-7.633-.934c-.98-.1-1.773-.168-2.322-.209l-.632-.042A.878.878,0,0,0,429.787,756.189Z" transform="translate(-429.787 -756.184)" fill="#fff"/>
        </g>
      </g>
      <g id="Group_4887" data-name="Group 4887" transform="translate(163.404 27.915)">
        <g id="Group_4886" data-name="Group 4886" transform="translate(0)">
          <path id="Path_400" data-name="Path 400" d="M367.1,813.313c-.018.057,1.019.412,2.255.952s2.2,1.052,2.234,1a13.031,13.031,0,0,0-4.489-1.953Z" transform="translate(-367.099 -813.307)" fill="#fff"/>
        </g>
      </g>
      <g id="Group_4889" data-name="Group 4889" transform="translate(198.02 32.868)">
        <g id="Group_4888" data-name="Group 4888" transform="translate(0)">
          <path id="Path_401" data-name="Path 401" d="M190.228,825.848a.407.407,0,0,0,.1.024l.3.049,1.173.169c1.02.139,2.493.352,4.311.629,3.638.552,8.649,1.406,14.14,2.567s10.42,2.417,13.969,3.388c1.775.484,3.208.888,4.2,1.174l1.14.322.3.079a.053.053,0,1,0,.006-.02l-.292-.1-1.129-.358c-.982-.31-2.409-.735-4.18-1.237-3.541-1.007-8.468-2.282-13.965-3.449s-10.517-1.995-14.162-2.51c-1.822-.259-3.3-.449-4.323-.564l-1.178-.13-.307-.029A.414.414,0,0,0,190.228,825.848Z" transform="translate(-190.228 -825.846)" fill="#fff"/>
        </g>
      </g>
      <g id="Group_4891" data-name="Group 4891" transform="translate(203.557 49.205)">
        <g id="Group_4890" data-name="Group 4890" transform="translate(0)">
          <path id="Path_402" data-name="Path 402" d="M217.255,867.269a1.213,1.213,0,0,0,.26.018l.745.012c.323,0,.719,0,1.177.034s.981.036,1.555.1l.9.085c.314.031.637.087.974.131.674.08,1.385.226,2.135.365a34.856,34.856,0,0,1,9.317,3.337c.668.369,1.31.707,1.882,1.074.288.179.573.342.835.517l.751.507c.485.313.9.639,1.266.909s.681.515.931.721l.583.464a1.238,1.238,0,0,0,.212.151,1.259,1.259,0,0,0-.185-.182l-.559-.494c-.242-.216-.544-.473-.912-.75s-.771-.615-1.253-.937l-.747-.521c-.261-.179-.545-.346-.833-.529-.571-.375-1.213-.721-1.882-1.1a33.534,33.534,0,0,0-9.368-3.355c-.755-.135-1.471-.275-2.15-.349-.339-.041-.664-.093-.98-.12L221,867.29c-.577-.057-1.1-.056-1.563-.071s-.857-.012-1.181,0l-.746.027A1.27,1.27,0,0,0,217.255,867.269Z" transform="translate(-217.255 -867.206)" fill="#fff"/>
        </g>
      </g>
      <g id="Group_4893" data-name="Group 4893" transform="translate(42.715 47.127)">
        <g id="Group_4892" data-name="Group 4892" transform="translate(0)">
          <path id="Path_403" data-name="Path 403" d="M625.334,861.958a1.3,1.3,0,0,0,.261.03l.749.044c.325.013.722.035,1.182.086s.985.079,1.559.173l.9.127c.314.045.636.117.972.177.674.112,1.382.293,2.129.47a34.243,34.243,0,0,1,9.186,3.842c.65.408,1.276.785,1.83,1.186.279.2.556.376.809.568l.725.553c.47.343.861.7,1.218.989s.653.559.891.781l.557.5a1.265,1.265,0,0,0,.2.165,1.223,1.223,0,0,0-.175-.195l-.531-.531c-.229-.231-.517-.509-.87-.809s-.737-.664-1.2-1.016l-.72-.567c-.252-.2-.528-.379-.806-.58-.552-.409-1.178-.793-1.829-1.208a32.99,32.99,0,0,0-9.238-3.864c-.753-.172-1.466-.348-2.145-.454-.338-.057-.663-.125-.979-.166l-.909-.115c-.578-.084-1.106-.106-1.568-.143s-.861-.051-1.187-.052l-.751-.006A1.22,1.22,0,0,0,625.334,861.958Z" transform="translate(-625.334 -861.946)" fill="#fff"/>
        </g>
      </g>
      <g id="Group_4902" data-name="Group 4902" transform="translate(115.268 40.211)">
        <g id="Group_4899" data-name="Group 4899" transform="translate(0)">
          <g id="Group_4894" data-name="Group 4894" transform="translate(2.037)" opacity="0.3">
            <path id="Path_404" data-name="Path 404" d="M472,846.941c0,1.384,2.049,2.506,4.577,2.506s4.576-1.122,4.576-2.506-2.049-2.505-4.576-2.505S472,845.557,472,846.941Z" transform="translate(-471.998 -844.435)"/>
          </g>
          <g id="Group_4898" data-name="Group 4898" transform="translate(0 1.175)">
            <g id="Group_4895" data-name="Group 4895" transform="translate(0.05 0.103)">
              <path id="Path_405" data-name="Path 405" d="M468.194,850.125h10.673a1.227,1.227,0,0,0,1.227-1.227h0a1.227,1.227,0,0,0-1.227-1.227H468.194a1.227,1.227,0,0,0-1.227,1.227h0A1.227,1.227,0,0,0,468.194,850.125Z" transform="translate(-466.967 -847.671)" fill="#b15f27"/>
            </g>
            <g id="Group_4897" data-name="Group 4897">
              <g id="Group_4896" data-name="Group 4896">
                <path id="Path_406" data-name="Path 406" d="M467.989,849.968c0-.011-.1-.007-.287-.057a1.221,1.221,0,0,1-.664-.462,1.183,1.183,0,0,1-.1-1.218,1.159,1.159,0,0,1,.559-.542,1.937,1.937,0,0,1,.893-.1l10.272.031a1.126,1.126,0,0,1,.205,2.232,5.169,5.169,0,0,1-.67.021l-1.335,0-4.618.022-3.113.033-.846.019a.148.148,0,1,0,0,.042l.846.019,3.113.033,4.618.022,1.335,0a5.216,5.216,0,0,0,.706-.021,1.328,1.328,0,0,0-.241-2.634l-10.272.03c-.166,0-.32,0-.486.008a1.287,1.287,0,0,0-1.07.732,1.27,1.27,0,0,0,.14,1.317,1.222,1.222,0,0,0,.718.454A.839.839,0,0,0,467.989,849.968Z" transform="translate(-466.712 -847.411)" fill="#fff" opacity="0.28"/>
              </g>
            </g>
          </g>
        </g>
        <g id="Group_4901" data-name="Group 4901" transform="translate(2.353 1.435)">
          <g id="Group_4900" data-name="Group 4900" transform="translate(0)">
            <path id="Path_407" data-name="Path 407" d="M470.876,848.172c0,.057,2.078.1,4.64.1s4.641-.046,4.641-.1-2.077-.1-4.641-.1S470.876,848.115,470.876,848.172Z" transform="translate(-470.876 -848.069)" fill="#fff"/>
          </g>
        </g>
      </g>
      <g id="Group_4911" data-name="Group 4911" transform="translate(58.538 40.211)">
        <g id="Group_4908" data-name="Group 4908" transform="translate(0)">
          <g id="Group_4903" data-name="Group 4903" transform="translate(2.037)" opacity="0.3">
            <path id="Path_408" data-name="Path 408" d="M615.616,846.941c0,1.384,2.049,2.506,4.577,2.506s4.577-1.122,4.577-2.506-2.049-2.505-4.577-2.505S615.616,845.557,615.616,846.941Z" transform="translate(-615.616 -844.435)"/>
          </g>
          <g id="Group_4907" data-name="Group 4907" transform="translate(0 1.175)">
            <g id="Group_4904" data-name="Group 4904" transform="translate(0.05 0.103)">
              <path id="Path_409" data-name="Path 409" d="M611.812,850.125h10.673a1.227,1.227,0,0,0,1.227-1.227h0a1.227,1.227,0,0,0-1.227-1.227H611.812a1.227,1.227,0,0,0-1.227,1.227h0A1.227,1.227,0,0,0,611.812,850.125Z" transform="translate(-610.585 -847.671)" fill="#b15f27"/>
            </g>
            <g id="Group_4906" data-name="Group 4906">
              <g id="Group_4905" data-name="Group 4905">
                <path id="Path_410" data-name="Path 410" d="M611.607,849.968c0-.011-.1-.007-.287-.057a1.222,1.222,0,0,1-.664-.462,1.185,1.185,0,0,1-.1-1.218,1.161,1.161,0,0,1,.56-.542,1.938,1.938,0,0,1,.893-.1l10.272.031a1.126,1.126,0,0,1,.205,2.232,5.175,5.175,0,0,1-.67.021l-1.335,0-4.618.022-3.114.033-.846.019a.148.148,0,1,0,0,.042l.846.019,3.114.033,4.618.022,1.335,0a5.218,5.218,0,0,0,.706-.021,1.328,1.328,0,0,0-.241-2.634l-10.272.03c-.166,0-.32,0-.486.008a1.287,1.287,0,0,0-1.07.732,1.27,1.27,0,0,0,.14,1.317,1.225,1.225,0,0,0,.718.454A.839.839,0,0,0,611.607,849.968Z" transform="translate(-610.33 -847.411)" fill="#fff" opacity="0.28"/>
              </g>
            </g>
          </g>
        </g>
        <g id="Group_4910" data-name="Group 4910" transform="translate(0.786 1.546)">
          <g id="Group_4909" data-name="Group 4909" transform="translate(0)">
            <path id="Path_411" data-name="Path 411" d="M612.129,848.453c0,.057,2.638.1,5.89.1s5.891-.046,5.891-.1-2.637-.1-5.891-.1S612.129,848.4,612.129,848.453Z" transform="translate(-612.129 -848.35)" fill="#fff"/>
          </g>
        </g>
      </g>
    </g>
  </g>
</svg>
