<svg xmlns="http://www.w3.org/2000/svg" width="75.264" height="70.56" viewBox="0 0 75.264 70.56">
  <g id="Group_4974" data-name="Group 4974" transform="translate(0 -16)">
    <path id="Path_502" data-name="Path 502" d="M57.624,51.28a17.64,17.64,0,1,0,17.64,17.64A17.66,17.66,0,0,0,57.624,51.28ZM68,66.069,56.978,77.094a2.2,2.2,0,0,1-3.118,0l-6.615-6.615a2.2,2.2,0,0,1,3.118-3.118l5.056,5.056,9.466-9.466A2.2,2.2,0,1,1,68,66.069ZM59.829,16H6.615A6.622,6.622,0,0,0,0,22.615v2.2H66.444v-2.2A6.622,6.622,0,0,0,59.829,16ZM0,29.23H66.444v4.41H0Z" transform="translate(0 0)" fill="#ff8939"/>
    <path id="Path_503" data-name="Path 503" d="M0,166v24.255a6.622,6.622,0,0,0,6.615,6.615H35.574a22,22,0,0,1,30.87-20.181V166Zm24.549,22.05H11.025a2.2,2.2,0,1,1,0-4.41H24.549a2.2,2.2,0,1,1,0,4.41Zm0-8.82H11.025a2.205,2.205,0,0,1,0-4.41H24.549a2.205,2.205,0,0,1,0,4.41Z" transform="translate(0 -127.95)" fill="#ff8939"/>
  </g>
</svg>
