<svg xmlns="http://www.w3.org/2000/svg" width="74.217" height="70.56" viewBox="0 0 74.217 70.56">
  <g id="Group_4978" data-name="Group 4978" transform="translate(-2 -2.69)">
    <path id="Path_496" data-name="Path 496" d="M63.547,18.223A11.345,11.345,0,0,0,52.229,6.9H49.473v6.918a2.651,2.651,0,1,1-5.3,0V6.9H21.35v6.918a2.651,2.651,0,1,1-5.3,0V6.9h-2.73A11.345,11.345,0,0,0,2,18.223v1.7H63.547ZM13.318,64.211H37.386c-3.313-4.692-4.957-9.065-4.957-13.227A24.53,24.53,0,0,1,63.547,27.341V25.22H2v27.7A11.324,11.324,0,0,0,13.318,64.211ZM21.35,5.341a2.651,2.651,0,0,0-5.3,0V6.9h5.3Zm28.123,0a2.651,2.651,0,0,0-5.3,0V6.9h5.3Z" transform="translate(0 0)" fill="#ff8939"/>
    <path id="Path_497" data-name="Path 497" d="M34.724,13.65A19.276,19.276,0,0,0,15.48,32.894c0,5.46,4.347,12.113,12.882,19.827a9.517,9.517,0,0,0,12.723,0c8.562-7.713,12.882-14.366,12.882-19.827A19.276,19.276,0,0,0,34.724,13.65Zm0,28.627a9.37,9.37,0,1,1,9.383-9.383A9.378,9.378,0,0,1,34.724,42.277Z" transform="translate(22.25 18.091)" fill="#ff8939"/>
    <path id="Path_498" data-name="Path 498" d="M25.265,19.38a4.069,4.069,0,1,0,4.082,4.055,4.055,4.055,0,0,0-4.082-4.055Z" transform="translate(31.708 27.549)" fill="#ff8939"/>
  </g>
</svg>
