<svg xmlns="http://www.w3.org/2000/svg" width="68.421" height="63.699" viewBox="0 0 68.421 63.699">
  <g id="Group_4979" data-name="Group 4979" transform="translate(-2 -2.001)">
    <path id="Path_499" data-name="Path 499" d="M47.657,21.579l1.588,3.577H11.376l4.4-9.916a1.183,1.183,0,0,1,1.078-.7H32.7A17.608,17.608,0,0,1,30.616,11H16.861a4.722,4.722,0,0,0-4.313,2.8l-1.9,4.275H3.18A1.18,1.18,0,0,0,2,19.258v1.6a2.359,2.359,0,0,0,1.9,2.314L8.019,24,4.359,32.234V51.108a2.359,2.359,0,0,0,2.359,2.359H13.8a2.359,2.359,0,0,0,2.359-2.359V44.03H44.468v7.078a2.359,2.359,0,0,0,2.359,2.359H53.9a2.359,2.359,0,0,0,2.359-2.359V32.234L51.281,21.025a17.478,17.478,0,0,1-3.624.554ZM13.8,38.132a3.54,3.54,0,1,1,3.541-3.539A3.54,3.54,0,0,1,13.8,38.132Zm21.234-1.18H25.593a2.359,2.359,0,0,1,0-4.719H35.03a2.359,2.359,0,1,1,0,4.719Zm11.8,1.18a3.54,3.54,0,1,1,3.541-3.539A3.54,3.54,0,0,1,46.827,38.132Z" transform="translate(0 12.232)" fill="#ff8939"/>
    <path id="Path_500" data-name="Path 500" d="M51.713,33.708,41.337,23.334a14.2,14.2,0,1,0-5,5L46.709,38.712a3.539,3.539,0,1,0,5-5ZM19.719,16.157a9.437,9.437,0,1,1,9.437,9.437A9.447,9.447,0,0,1,19.719,16.157Z" transform="translate(17.671 0)" fill="#ff8939"/>
  </g>
</svg>
