<svg xmlns="http://www.w3.org/2000/svg" width="158" height="80" viewBox="0 0 158 80">
  <g id="header_logo_original" transform="translate(983.64 -852.275)">
    <path id="Path_21" data-name="Path 21" d="M321.077,724.861h-18.5l-3.342,8.836H290.71l17.525-44.557h7.276L332.96,733.7h-8.613Zm-2-6.831L311.8,698.946l-7.352,19.084Z" transform="translate(-1274.35 181.421)" fill="#005e5e"/>
    <path id="Path_22" data-name="Path 22" d="M445.216,751.33h-9.44L427.092,739.6l-8.685,11.732H409.28l13.363-17.747L410.394,717.47h9.353l7.424,10.1,7.722-10.1h9.062L431.7,733.359Z" transform="translate(-1348.169 163.692)" fill="#005e5e"/>
    <path id="Path_23" data-name="Path 23" d="M642.518,750.477V730.725c0-4.6-3.093-7.794-8.084-7.794-4.909,0-8.481,3.191-8.481,7.794v19.752H617.71V727.33c0-6.955,8.084-11.23,17.117-11.23,9.44,0,15.935,5.566,15.935,14.4v19.975Z" transform="translate(-1477.931 164.548)" fill="#005e5e"/>
    <path id="Path_24" data-name="Path 24" d="M477.6,675.263c-1.887-3.444-6.2-12.933-22.941-15.761a133.153,133.153,0,0,0-17.3-1.408c6.417,3.3,10.191,4.675,15.781,9.414-4.329-.378-8.715-.332-12.667-2.643a6.715,6.715,0,0,1-2.993-4.048,3.308,3.308,0,0,0-1.4-1.8c-5.794-3.115-9.5-2.643-15.97-2.7-4.669-.042-9.346.54-14.018.612-7.949.128-15.906.26-23.855.049-10.516-.279-21.024-.891-31.536-1.356-.192,0-.377.019-.291,0-4.25,0-5.518-.068-8.126-.068H337.2l-.079-.483c1.966-.793,3.922-1.62,5.9-2.368,7.624-2.877,15.268-5.7,22.889-8.6,11.8-4.493,24.013-4.931,36.356-4.418a66.9,66.9,0,0,1,27.2,6.464,39.226,39.226,0,0,1,5.741,3.493c-4.152-1.544-8.221-3.4-12.456-4.554a76.392,76.392,0,0,0-13.211-2.394c-4.424-.4-8.9-.087-13.524-.087.457.279.827.5,1.189.733,4.907,3.138,9.814,6.3,14.747,9.395a5.218,5.218,0,0,0,2.491.823c8.553.287,17.132.166,25.667.819,9.965.755,20.348,2.673,28.762,7.711C475.674,666.162,477.6,675.263,477.6,675.263Zm-70.647-21.01.249-.446c-2.091-1.711-4.122-3.508-6.281-5.117-6.122-4.561-12.879-7.227-20.416-6.166a93.512,93.512,0,0,0-13.014,3.274,67.883,67.883,0,0,0-6.651,2.734l-.034.668c3.348,1.054,6.643,2.375,10.052,3.108C382.78,654.887,394.885,654.253,406.948,654.253Z" transform="translate(-1303.235 212.763)" fill="#ff8939"/>
    <path id="Path_25" data-name="Path 25" d="M508.75,705.369c2.341-4.864,8.757-10.059,17.868-10.309,7.93.083,15.459,4.327,18.484,11.271C534.31,696.5,522.551,694.66,508.75,705.369Z" transform="translate(-1410.096 177.925)" fill="#ff8939"/>
    <path id="Path_26" data-name="Path 26" d="M368.785,840.075l-1.763-2.364h-2.281v2.352h-1.6V832h3.549a5.066,5.066,0,0,1,1.952.344,2.824,2.824,0,0,1,1.276.993,2.644,2.644,0,0,1,.446,1.537,2.6,2.6,0,0,1-.476,1.567,2.787,2.787,0,0,1-1.363.982l1.986,2.643Zm-.582-6.393a2.583,2.583,0,0,0-1.59-.415h-1.888v3.221h1.888a2.557,2.557,0,0,0,1.59-.423,1.42,1.42,0,0,0,.544-1.193,1.4,1.4,0,0,0-.544-1.189Z" transform="translate(-1319.441 92.083)" fill="#005e5e"/>
    <path id="Path_27" data-name="Path 27" d="M387,832h1.6v8.077H387Z" transform="translate(-1334.294 92.081)" fill="#005e5e"/>
    <path id="Path_28" data-name="Path 28" d="M397.41,832h3.776a5.7,5.7,0,0,1,2.454.5,3.893,3.893,0,0,1,1.665,1.42,4.1,4.1,0,0,1,0,4.233,3.892,3.892,0,0,1-1.665,1.42,5.7,5.7,0,0,1-2.454.5H397.41Zm3.7,6.8a3.873,3.873,0,0,0,1.669-.34,2.56,2.56,0,0,0,1.11-.97,2.934,2.934,0,0,0,0-2.919,2.56,2.56,0,0,0-1.11-.97,3.873,3.873,0,0,0-1.669-.34h-2.1V838.8Z" transform="translate(-1340.775 92.082)" fill="#005e5e"/>
    <path id="Path_29" data-name="Path 29" d="M430.838,838.819v1.257H424.37V832h6.28v1.257h-4.679v2.1h4.154v1.235h-4.154v2.228Z" transform="translate(-1357.559 92.081)" fill="#005e5e"/>
    <path id="Path_30" data-name="Path 30" d="M456.853,837.226v2.851h-1.6v-2.828L451.85,832h1.714l2.526,3.935,2.56-3.935h1.563Z" transform="translate(-1374.666 92.081)" fill="#005e5e"/>
    <path id="Path_31" data-name="Path 31" d="M476.469,839.465a4.154,4.154,0,0,1-1.665-1.492,4.048,4.048,0,0,1,0-4.256,4.119,4.119,0,0,1,1.665-1.492,5.535,5.535,0,0,1,4.754,0,4.153,4.153,0,0,1,1.665,1.484,4.074,4.074,0,0,1,0,4.271,4.154,4.154,0,0,1-1.665,1.484,5.536,5.536,0,0,1-4.754,0Zm3.931-1.133a2.8,2.8,0,0,0,0-4.95,3.511,3.511,0,0,0-3.108,0,2.8,2.8,0,0,0,0,4.95A3.512,3.512,0,0,0,480.4,838.332Z" transform="translate(-1388.58 92.274)" fill="#005e5e"/>
    <path id="Path_32" data-name="Path 32" d="M504.117,839.254a3.528,3.528,0,0,1-1-2.7V832h1.6v4.5q0,2.375,2.194,2.375T509.1,836.5V832h1.575v4.558a3.543,3.543,0,0,1-.989,2.7,4.589,4.589,0,0,1-5.566,0Z" transform="translate(-1406.584 92.081)" fill="#005e5e"/>
    <path id="Path_33" data-name="Path 33" d="M534.7,840.075l-1.763-2.364h-2.277v2.352h-1.6V832H532.6a5.085,5.085,0,0,1,1.956.344,2.833,2.833,0,0,1,1.273.993,2.643,2.643,0,0,1,.446,1.537,2.6,2.6,0,0,1-.476,1.567,2.794,2.794,0,0,1-1.359.982l1.982,2.643Zm-.578-6.393a2.59,2.59,0,0,0-1.59-.415H530.64v3.221h1.888a2.564,2.564,0,0,0,1.59-.423,1.427,1.427,0,0,0,.54-1.193,1.412,1.412,0,0,0-.536-1.189Z" transform="translate(-1422.726 92.083)" fill="#005e5e"/>
    <path id="Path_34" data-name="Path 34" d="M573.171,832l-2.858,8.077h-1.7L566.48,834.1l-2.167,5.977H562.6L559.74,832h1.665l2.145,6.14,2.228-6.14h1.48l2.183,6.174L571.646,832Z" transform="translate(-1441.833 92.081)" fill="#005e5e"/>
    <path id="Path_35" data-name="Path 35" d="M601.642,838.208H597.33l-.85,1.869h-1.65L598.712,832h1.575l3.9,8.077h-1.677Zm-.529-1.178-1.627-3.519-1.612,3.531Z" transform="translate(-1463.677 92.081)" fill="#005e5e"/>
    <path id="Path_36" data-name="Path 36" d="M622.753,837.226v2.851h-1.6v-2.828L617.75,832h1.714L622,835.935,624.547,832h1.578Z" transform="translate(-1477.946 92.081)" fill="#005e5e"/>
    <path id="Path_37" data-name="Path 37" d="M527.641,714.14a17.812,17.812,0,1,0,17.812,17.81,17.811,17.811,0,0,0-17.812-17.81Zm-13.635,15.508.189.06a64.7,64.7,0,0,1,6.54,3.21,1.68,1.68,0,0,1,.755,2.266,63.8,63.8,0,0,1-3.451,6.532l-.068.1A13.763,13.763,0,0,1,514.006,729.648Zm7.216,14.549c.378-.415.755-.819,1.106-1.239a58.352,58.352,0,0,1,4.154-4.176,1.658,1.658,0,0,1,2.315,0,64.38,64.38,0,0,1,5.192,5.358.377.377,0,0,1,.049.083A13.688,13.688,0,0,1,521.222,744.2Zm14.156,1.023q-3-3.361-6.008-6.71a2.164,2.164,0,0,0-2.719-.608,2.563,2.563,0,0,0-.7.544q-3.281,3.636-6.536,7.292c-.14-.083-.276-.17-.412-.257l7.288-9.244a1.625,1.625,0,0,0-.121-2.3,1.227,1.227,0,0,0-1.212-.1,2.741,2.741,0,0,0-1.367,1.235q-3.07,4.637-6.17,9.263c-.125-.1-.245-.211-.378-.317l1.4-2.42q1.756-3.021,3.512-6.064a2.186,2.186,0,0,0-1.008-3.164c-2.991-1.337-5.989-2.643-8.983-3.988.034-.159.072-.317.109-.472l8.779,3.244c.755.276,1.473.6,2.232.823a1.7,1.7,0,0,0,1.7-.2,1.257,1.257,0,0,0,.223-1.771,2.881,2.881,0,0,0-1.537-.921c-3.6-1-7.174-2.02-10.784-3.021.06-.151.121-.3.185-.449l3.576.755,5.981,1.306a2.205,2.205,0,0,0,2.756-1.979q.5-4.792.986-9.595v-.117l.483-.038L526.6,717.4q-.151,3.923-.31,7.85c-.03.808-.064,1.62-.1,2.428a1.737,1.737,0,0,0,.725,1.548,1.2,1.2,0,0,0,1.752-.351,2.869,2.869,0,0,0,.378-1.775c-.151-3.459-.279-6.922-.415-10.38l-.034-.755.48.038q.5,4.826.989,9.652a2.213,2.213,0,0,0,2.779,2.035l9.516-2.05q.1.227.181.453l-3.482.978-7.805,2.2a1.94,1.94,0,0,0-1.344,1.6,1.133,1.133,0,0,0,.827,1.084,2.669,2.669,0,0,0,1.763-.057c3.542-1.34,7.1-2.643,10.648-3.953.042.155.076.313.113.472l-2.409,1.065c-2.107.933-4.21,1.869-6.317,2.79a2.443,2.443,0,0,0-1.412,1.291,2.179,2.179,0,0,0,.151,2.016l4.909,8.466c-.121.109-.242.215-.378.317q-3.211-4.814-6.419-9.633c-.378-.551-1.276-1.348-2.145-.936a1.283,1.283,0,0,0-.43.332,1.747,1.747,0,0,0,.193,2.224q3.6,4.588,7.212,9.161l-.408.253Zm-16.271-2.356a1.289,1.289,0,0,1,.1-.181l3.9-5.426.155-.2c.378-.495.593-.347.974,0,.159.155.068.378-.042.517-.272.4-.551.8-.838,1.189q-1.654,2.266-3.312,4.486a1.807,1.807,0,0,1-.155.17Zm5.83-8.009a.585.585,0,0,1,.578-.563.574.574,0,0,1,.578.581.582.582,0,0,1-.585.578.6.6,0,0,1-.57-.6Zm-10.611-6.729.31-.94c.457.136.895.264,1.329.4q2.677.853,5.354,1.722l.143.049c.529.177.5.487.227.952-.109.189-.332.14-.517.083-.544-.162-1.091-.329-1.631-.51l-5.041-1.692Zm9.3,2.7a.578.578,0,1,1,.574.574.578.578,0,0,1-.574-.574Zm16.411-5.033c-.378.079-.717.151-1.065.234a60.234,60.234,0,0,1-6.351,1.065,1.684,1.684,0,0,1-1.888-1.386,65.354,65.354,0,0,1-1.023-7.174v-.276A13.749,13.749,0,0,1,540.034,725.793Zm-12.393,1.945a.581.581,0,0,1,.574.593.574.574,0,1,1-.574-.593Zm-.548-2.915q0-3.24.042-6.472V718.1h.974c0,.083.019.155.019.23l.045,6.6v.306c-.03.495-.14.6-.627.578a.378.378,0,0,1-.427-.378,4.154,4.154,0,0,1-.023-.612Zm-1.469-6.582c-.053.54-.117,1.054-.155,1.571-.155,1.964-.548,3.9-.891,5.834a1.677,1.677,0,0,1-1.937,1.427c-1.133-.151-2.266-.287-3.4-.487-1.291-.227-2.571-.517-3.855-.782a.665.665,0,0,1-.091-.038A13.682,13.682,0,0,1,525.625,718.241Zm15.334,9.886c-.668.23-1.318.461-1.971.676-1.439.48-2.881.948-4.32,1.42-.189.064-.378.121-.563.17-.378.1-.51,0-.627-.325s-.079-.559.287-.683q1.548-.532,3.1-1.031c1.133-.378,2.307-.721,3.463-1.08l.3-.087c.03.076.064.132.083.2.079.249.14.491.242.751Zm-9.3,2.673a.575.575,0,1,0,0,.008Zm8.885,6.14a13.687,13.687,0,0,1-3.225,4.909c-.378-.653-.755-1.265-1.1-1.888q-1.246-2.39-2.447-4.807a1.654,1.654,0,0,1,.706-2.164,64.568,64.568,0,0,1,6.631-3.259l.185-.057a13.82,13.82,0,0,1-.748,7.273Zm-4.373,5.921-.8.585c-.287-.378-.563-.755-.827-1.1q-1.669-2.266-3.334-4.561-.049-.068-.1-.147a.536.536,0,0,1,.412-.876.634.634,0,0,1,.438.238q.68.869,1.318,1.763,1.4,1.964,2.794,3.938C536.107,742.74,536.13,742.785,536.175,742.86Zm-5.823-8.005a.58.58,0,1,1-.57-.574A.582.582,0,0,1,530.353,734.855Z" transform="translate(-1410.768 165.768)" fill="#ff8939"/>
    <path id="Path_38" data-name="Path 38" d="M555.578,757.69a2.194,2.194,0,1,0-.641,1.554A2.194,2.194,0,0,0,555.578,757.69Zm-2.194,1.069a1.069,1.069,0,1,1,1.069-1.069,1.069,1.069,0,0,1-1.069,1.069Z" transform="translate(-1436.509 140.069)" fill="#ff8939"/>
    <path id="Path_39" data-name="Path 39" d="M290.71,832v8.179h22.9V832Zm6.906,4.818h-5.173v-1.473h5.173Zm7.137,0H299.58v-1.473h5.173Zm7.137,0h-5.173v-1.473h5.173Z" transform="translate(-1274.35 92.081)" fill="#005e5e"/>
    <path id="Path_40" data-name="Path 40" d="M648.65,832v8.179h22.9V832Zm6.9,4.826h-5.173v-1.473h5.173Zm7.137,0h-5.173v-1.473h5.173Zm7.137,0h-5.181v-1.473h5.173Z" transform="translate(-1497.188 92.081)" fill="#005e5e"/>
  </g>
</svg>
