<svg xmlns="http://www.w3.org/2000/svg" width="48" height="48" viewBox="0 0 48 48">
  <g id="select_pickup_drop_location" transform="translate(-309 -849)">
    <rect id="Rectangle_873" data-name="Rectangle 873" width="48" height="48" rx="8" transform="translate(309 849)" fill="#f1f8f8"/>
    <g id="Group_4923" data-name="Group 4923" transform="translate(252.427 859)">
      <path id="Path_477" data-name="Path 477" d="M80.714,0A10.152,10.152,0,0,0,70.573,10.14c0,6.939,9.075,17.126,9.461,17.557a.913.913,0,0,0,1.359,0c.386-.43,9.461-10.617,9.461-17.557A10.152,10.152,0,0,0,80.714,0Zm0,15.242a5.1,5.1,0,1,1,5.1-5.1A5.108,5.108,0,0,1,80.714,15.242Z" fill="#889f9f"/>
    </g>
  </g>
</svg>
