<svg xmlns="http://www.w3.org/2000/svg" width="48" height="48" viewBox="0 0 48 48">
  <g id="select_city" transform="translate(-309 -849)">
    <rect id="Rectangle_873" data-name="Rectangle 873" width="48" height="48" rx="8" transform="translate(309 849)" fill="#f1f8f8"/>
    <g id="Group_4928" data-name="Group 4928" transform="translate(295 834.6)">
      <path id="Path_478" data-name="Path 478" d="M51.517,51.434H48.591V49.461A2.4,2.4,0,0,0,49.906,45.5a1.928,1.928,0,1,0-3.6,0,2.408,2.408,0,0,0,1.322,3.959v1.973H44.342V28.509L39.2,24.4H32.122V37.917H26.239V51.434H24.483a.483.483,0,1,0,0,.966H51.517a.483.483,0,1,0,0-.966ZM30.4,42.129H28.828V40.554H30.4Zm6.143,9.305H34.965V45.641H36.54Zm0-17.319H34.965V32.547H36.54Zm0-5.135H34.965V27.411H36.54Zm6.837,22.454H39.521V46.106l3.856,3.084Zm0-3.482-3.856-3.084v-3.09l3.856,3.084Zm0-4.327-3.856-3.084v-3.1l3.856,3.084Zm0-4.333-3.856-3.084V33.12L43.377,36.2Zm0-4.327-3.856-3.084v-3.1l3.856,3.084Zm0-4.333L39.521,27.55V25.891l3.856,3.084Z" fill="#889f9f"/>
    </g>
  </g>
</svg>
