<svg xmlns="http://www.w3.org/2000/svg" xmlns:xlink="http://www.w3.org/1999/xlink" width="1949" height="884" viewBox="0 0 1949 884">
  <defs>
    <filter id="Ellipse_25" x="396" y="0" width="122" height="122" filterUnits="userSpaceOnUse">
      <feOffset dy="3" input="SourceAlpha"/>
      <feGaussianBlur stdDeviation="3" result="blur"/>
      <feFlood flood-opacity="0.161"/>
      <feComposite operator="in" in2="blur"/>
      <feComposite in="SourceGraphic"/>
    </filter>
    <filter id="Ellipse_25-2" x="910" y="214" width="122" height="122" filterUnits="userSpaceOnUse">
      <feOffset dy="3" input="SourceAlpha"/>
      <feGaussianBlur stdDeviation="3" result="blur-2"/>
      <feFlood flood-opacity="0.161"/>
      <feComposite operator="in" in2="blur-2"/>
      <feComposite in="SourceGraphic"/>
    </filter>
    <filter id="Ellipse_25-3" x="865" y="465" width="122" height="122" filterUnits="userSpaceOnUse">
      <feOffset dy="3" input="SourceAlpha"/>
      <feGaussianBlur stdDeviation="3" result="blur-3"/>
      <feFlood flood-opacity="0.161"/>
      <feComposite operator="in" in2="blur-3"/>
      <feComposite in="SourceGraphic"/>
    </filter>
    <filter id="Ellipse_25-4" x="1371" y="688" width="122" height="122" filterUnits="userSpaceOnUse">
      <feOffset dy="3" input="SourceAlpha"/>
      <feGaussianBlur stdDeviation="3" result="blur-4"/>
      <feFlood flood-opacity="0.161"/>
      <feComposite operator="in" in2="blur-4"/>
      <feComposite in="SourceGraphic"/>
    </filter>
  </defs>
  <g id="steps_how_it_works" transform="translate(29 -1248)">
    <path id="Path_493" data-name="Path 493" d="M480,1298.881H720.984v51.344" transform="translate(503 218.775)" fill="none" stroke="#889f9f" stroke-width="1"/>
    <path id="Path_494" data-name="Path 494" d="M720.984,1298.881H480v51.344" transform="translate(148.016 474.119)" fill="none" stroke="#889f9f" stroke-width="1"/>
    <path id="Path_495" data-name="Path 495" d="M720.984,1298.881H480v51.344" transform="translate(639.5 697.447)" fill="none" stroke="#889f9f" stroke-width="1"/>
    <g id="Group_4937" data-name="Group 4937" transform="translate(0 -609.298)">
      <path id="Path_484" data-name="Path 484" d="M913.308,2196.861H421.7a50,50,0,0,1-50-50V1981.3H0v-100H421.7a50,50,0,0,1,50,50v165.563H913.308Z" transform="translate(0 0)" fill="#889f9f"/>
      <path id="Path_485" data-name="Path 485" d="M913.308,2196.861H421.7a50,50,0,0,1-50-50V1980.3H0v-99H421.7a50,50,0,0,1,50,50v165.563H913.308Z" transform="translate(504.986 216.063)" fill="#889f9f"/>
      <path id="Path_486" data-name="Path 486" d="M913.308,2198.274H421.7a50.112,50.112,0,0,1-50-50.224v-166.3H0V1883.3H421.7a50.112,50.112,0,0,1,50,50.224v164.3H913.308Z" transform="translate(1006.693 429.969)" fill="#889f9f"/>
      <path id="Path_488" data-name="Path 488" d="M0,1931.3H421.7v215.563H913.307" transform="translate(0 0)" fill="none" stroke="#fff" stroke-linejoin="round" stroke-width="10" stroke-dasharray="32 50"/>
      <path id="Path_489" data-name="Path 489" d="M421.7,1931.3h0v215.563H913.307" transform="translate(504.986 216.063)" fill="none" stroke="#fff" stroke-linejoin="round" stroke-width="10" stroke-dasharray="32 50"/>
      <path id="Path_490" data-name="Path 490" d="M421.7,1924.869v221.991H913.307" transform="translate(1006.693 433.383)" fill="none" stroke="#fff" stroke-linejoin="round" stroke-width="10" stroke-dasharray="32 50"/>
    </g>
    <g id="Group_4940" data-name="Group 4940">
      <g transform="matrix(1, 0, 0, 1, -29, 1248)" filter="url(#Ellipse_25)">
        <circle id="Ellipse_25-5" data-name="Ellipse 25" cx="52" cy="52" r="52" transform="translate(405 6)" fill="#ff8939"/>
      </g>
      <text id="_1" data-name="1" transform="translate(426 1326)" fill="#fff" font-size="60" font-family="ProximaNova-Bold, Proxima Nova" font-weight="700"><tspan x="-12" y="0">1</tspan></text>
    </g>
    <g id="Group_4941" data-name="Group 4941" transform="translate(514 214)">
      <g transform="matrix(1, 0, 0, 1, -543, 1034)" filter="url(#Ellipse_25-2)">
        <circle id="Ellipse_25-6" data-name="Ellipse 25" cx="52" cy="52" r="52" transform="translate(919 220)" fill="#ff8939"/>
      </g>
      <text id="_2" data-name="2" transform="translate(426 1326)" fill="#fff" font-size="60" font-family="ProximaNova-Bold, Proxima Nova" font-weight="700"><tspan x="-18" y="0">2</tspan></text>
    </g>
    <g id="Group_4942" data-name="Group 4942" transform="translate(469 465)">
      <g transform="matrix(1, 0, 0, 1, -498, 783)" filter="url(#Ellipse_25-3)">
        <circle id="Ellipse_25-7" data-name="Ellipse 25" cx="52" cy="52" r="52" transform="translate(874 471)" fill="#ff8939"/>
      </g>
      <text id="_3" data-name="3" transform="translate(426 1326)" fill="#fff" font-size="60" font-family="ProximaNova-Bold, Proxima Nova" font-weight="700"><tspan x="-17" y="0">3</tspan></text>
    </g>
    <g id="Group_4943" data-name="Group 4943" transform="translate(975 688)">
      <g transform="matrix(1, 0, 0, 1, -1004, 560)" filter="url(#Ellipse_25-4)">
        <circle id="Ellipse_25-8" data-name="Ellipse 25" cx="52" cy="52" r="52" transform="translate(1380 694)" fill="#ff8939"/>
      </g>
      <text id="_4" data-name="4" transform="translate(426 1326)" fill="#fff" font-size="60" font-family="ProximaNova-Bold, Proxima Nova" font-weight="700"><tspan x="-17" y="0">4</tspan></text>
    </g>
    <text id="Select_Location_Date_Time" data-name="Select Location, Date &amp; Time" transform="translate(530 1433)" fill="#0d0d0d" font-size="24" font-family="Montserrat-SemiBold, Montserrat" font-weight="600"><tspan x="0" y="0">Select Location, Date &amp; Time</tspan></text>
    <text id="Find_Your_Favorite_Car" data-name="Find Your Favorite Car" transform="translate(1078 1656)" fill="#0d0d0d" font-size="24" font-family="Montserrat-SemiBold, Montserrat" font-weight="600"><tspan x="0" y="0">Find Your Favorite Car</tspan></text>
    <text id="Checkout_Your_Details" data-name="Checkout &amp; Your Details" transform="translate(467 1914)" fill="#0d0d0d" font-size="24" font-family="Montserrat-SemiBold, Montserrat" font-weight="600"><tspan x="0" y="0">Checkout &amp; Your Details</tspan></text>
    <text id="Finally_Make_Payment" data-name="Finally Make Payment" transform="translate(974 2126)" fill="#0d0d0d" font-size="24" font-family="Montserrat-SemiBold, Montserrat" font-weight="600"><tspan x="0" y="0">Finally Make Payment</tspan></text>
    <g id="Group_4944" data-name="Group 4944" transform="translate(-241 996.99)">
      <g id="Group_4912" data-name="Group 4912" transform="translate(212 252)">
        <g id="Group_4715" data-name="Group 4715" transform="translate(9.528 31.727)">
          <path id="Path_352" data-name="Path 352" d="M344.52,885.37c-.808-.335-50.481-2.448-51.5-1.864s-104.212-3.9-103.5-3.9,3.152-12.226,3.152-12.226,9.877-7.27,10.8-8.03,119.937-.622,120.645.136,20.408,9.495,20.408,9.495Z" transform="translate(-189.511 -858.842)" fill="#9e4000"/>
        </g>
        <g id="Group_4716" data-name="Group 4716" transform="translate(9.528 31.727)" opacity="0.5">
          <path id="Path_353" data-name="Path 353" d="M344.52,885.37c-.808-.335-50.481-2.448-51.5-1.864s-104.212-3.9-103.5-3.9,3.152-12.226,3.152-12.226,9.877-7.27,10.8-8.03,119.937-.622,120.645.136,20.408,9.495,20.408,9.495Z" transform="translate(-189.511 -858.842)"/>
        </g>
        <g id="Group_4717" data-name="Group 4717" transform="translate(6.289 7.427)">
          <path id="Path_354" data-name="Path 354" d="M718.674,770.33l-12.545,11.519,5.626,1.463,4.9-3.448,6.669-6.351-2.314-3.675Z" transform="translate(-706.129 -769.838)" fill="#455a64"/>
        </g>
        <g id="Group_4718" data-name="Group 4718" transform="translate(99.599 5.866)">
          <path id="Path_355" data-name="Path 355" d="M342.764,780.427S321,766.4,313.256,764.121l-2.261,1.065,3.644,3.071,26.746,13.85Z" transform="translate(-310.995 -764.121)" fill="#455a64"/>
        </g>
        <g id="Group_4719" data-name="Group 4719" transform="translate(1.727 2.099)">
          <path id="Path_356" data-name="Path 356" d="M150.292,781.921l2.053-3.992-1.027-1.6v-5.816l2.281-2.851,4.22-.57,10.606-9.808-2.281-1.141-.57-1.368.684-1.255c13.571-2.509,52.575-3.079,62.726-3.193s20.186,3.764,20.186,3.764l-.912.8s4.22,2.053,10.15,4.9,18.019,10.834,18.019,10.834l4.448-.456c22.923,1.711,32.275,6.386,35.24,7.755s6.5,9.694,6.5,9.694c.912,1.976-.684,12.431-.684,12.431s-9.466,4.448-9.808,4.448c-.075,0-1.878-.033-4.651-.084a17.177,17.177,0,1,0-34-.624l-59.884-.775-18.028-1.966a17.169,17.169,0,0,0-33.778-3.684l-9.894-1.079-2.851-3.536Z" transform="translate(-149.037 -750.327)" fill="#ff8939"/>
        </g>
        <g id="Group_4720" data-name="Group 4720" transform="translate(159.203 51.21)">
          <path id="Path_357" data-name="Path 357" d="M165.422,930.2s-.614,4.138-1.644,5.064-10.39,3.36-12.168,3.454a17.224,17.224,0,0,1-2.572,0l1.175-7.582Z" transform="translate(-149.038 -930.197)" fill="#263238"/>
        </g>
        <g id="Group_4721" data-name="Group 4721" transform="translate(47.343 48.683)">
          <path id="Path_358" data-name="Path 358" d="M406.272,923.468c0,.094-1.125,8.56-1.125,8.56l-77.254-2.475-1.42-8.611Z" transform="translate(-326.473 -920.941)" fill="#263238"/>
        </g>
        <g id="Group_4722" data-name="Group 4722" transform="translate(51.978 42.936)" opacity="0.3">
          <path id="Path_359" data-name="Path 359" d="M412.557,905.309a27.908,27.908,0,0,0-9.277-2.675c-5.456-.657-51.269-3.089-54.293-2.7a36.928,36.928,0,0,0-7.493,2.3Z" transform="translate(-341.494 -899.896)"/>
        </g>
        <g id="Group_4724" data-name="Group 4724" transform="translate(76.995 20.882)">
          <g id="Group_4723" data-name="Group 4723" transform="translate(0)">
            <path id="Path_360" data-name="Path 360" d="M503.794,856.495a.48.48,0,0,0,.007-.1c0-.072,0-.166.006-.285,0-.259.006-.625.011-1.094,0-.958.007-2.33.013-4.022,0-3.4-.008-8.091-.013-13.268a36.421,36.421,0,0,0-.164-3.784c-.108-1.219-.248-2.39-.394-3.5-.294-2.227-.611-4.225-.885-5.9l-.674-3.965-.181-1.078c-.023-.123-.031-.217-.04-.281a.493.493,0,0,0-.017-.1.483.483,0,0,0,0,.1c0,.064.008.16.026.284.03.248.083.614.155,1.083l.63,3.972c.262,1.677.568,3.676.855,5.9.142,1.113.28,2.283.385,3.5a36.8,36.8,0,0,1,.16,3.771c.021,5.178.04,9.866.054,13.27.014,1.692.025,3.063.033,4.022.007.468.012.835.016,1.094,0,.119.006.213.008.285A.49.49,0,0,0,503.794,856.495Z" transform="translate(-501.461 -819.121)" fill="#263238"/>
          </g>
        </g>
        <g id="Group_4725" data-name="Group 4725" transform="translate(17.467 24.203)" opacity="0.3">
          <path id="Path_361" data-name="Path 361" d="M357.805,837.385c.316.1-32.793-.652-38.629-1.448s-100.467-4.653-100.467-4.653S346.758,834.05,357.805,837.385Z" transform="translate(-218.709 -831.284)"/>
        </g>
        <g id="Group_4726" data-name="Group 4726" transform="translate(2.982 29.701)" opacity="0.3">
          <path id="Path_362" data-name="Path 362" d="M755.389,852.485s-1.652,3.842-3.489,4.217-6.213-1.289-6.213-1.289l2.053-3.992Z" transform="translate(-745.687 -851.421)"/>
        </g>
        <g id="Group_4727" data-name="Group 4727" transform="translate(3.922 24.151)">
          <path id="Path_363" data-name="Path 363" d="M740.71,831.74c-.04.41-4.338,5.733-5.159,5.968a30.663,30.663,0,0,1-6.394-.274,9.562,9.562,0,0,1-1.255-.79l-1.027-1.6a26.937,26.937,0,0,1,0-3.953C727.069,831.141,740.788,830.931,740.71,831.74Z" transform="translate(-726.79 -831.093)" fill="#fff"/>
        </g>
        <g id="Group_4729" data-name="Group 4729" transform="translate(127.142 24.698)">
          <g id="Group_4728" data-name="Group 4728" transform="translate(0)">
            <path id="Path_364" data-name="Path 364" d="M214.656,840.632a.6.6,0,0,0-.1-.052l-.295-.138c-.259-.12-.645-.29-1.144-.5-1-.424-2.454-1.02-4.285-1.667-.916-.322-1.924-.662-3.021-.982a35.687,35.687,0,0,0-3.543-.869c-2.53-.445-5.33-.8-8.27-1.159-5.883-.7-11.22-1.233-15.083-1.607l-4.577-.424-1.245-.1-.324-.023a.635.635,0,0,0-.111,0,.628.628,0,0,0,.109.018l.323.037,1.243.131,4.572.469c3.86.4,9.195.949,15.076,1.648,2.938.358,5.738.711,8.264,1.147a36.122,36.122,0,0,1,3.533.853c1.1.314,2.1.649,3.021.964,1.833.634,3.292,1.216,4.3,1.623l1.154.479.3.125A.656.656,0,0,0,214.656,840.632Z" transform="translate(-172.661 -833.097)" fill="#263238"/>
          </g>
        </g>
        <g id="Group_4730" data-name="Group 4730" transform="translate(156.758 30.304)">
          <path id="Path_365" data-name="Path 365" d="M173.63,855.658c.1.049,3.344,4.361,2.908,4.833s-5.524.582-7.3-.4a75.217,75.217,0,0,1-8.213-6.432C160.983,853.442,171.013,854.423,173.63,855.658Z" transform="translate(-161.019 -853.629)" fill="#fff"/>
        </g>
        <g id="Group_4731" data-name="Group 4731" transform="translate(165.216 42.793)" opacity="0.3">
          <path id="Path_366" data-name="Path 366" d="M159.41,899.7c-.035,0-6.6-.98-8.192.413s-2.324,7.044-2.156,7.671,9.481-.054,9.473,0c0,.027.278-1.909.493-3.891C159.251,901.824,159.41,899.7,159.41,899.7Z" transform="translate(-149.038 -899.368)"/>
        </g>
        <g id="Group_4732" data-name="Group 4732" transform="translate(165.497 43.062)">
          <path id="Path_367" data-name="Path 367" d="M166.6,900.729c.108.234-.671,5.261-1.5,5.982s-5.776.877-5.776.877.86-5.653,1.9-6.447S166.288,900.058,166.6,900.729Z" transform="translate(-159.325 -900.355)" fill="#263238"/>
        </g>
        <g id="Group_4736" data-name="Group 4736" transform="translate(25.816)">
          <g id="Group_4733" data-name="Group 4733" transform="translate(0.28 0.055)">
            <path id="Path_368" data-name="Path 368" d="M510.608,746.9a33.688,33.688,0,0,0-5.918-2.758c-3.752-1.38-19.246-1.38-27.237-1.241s-25.917.119-29.877,1.241a27.291,27.291,0,0,0-6.808,2.987l3.477-.288s3.433-1.954,10.765-2.064c3.891-.058,43.078-.347,45.163,0s3.88.854,3.88.854Z" transform="translate(-440.769 -742.839)" fill="#e0e0e0"/>
          </g>
          <g id="Group_4735" data-name="Group 4735" transform="translate(0)">
            <g id="Group_4734" data-name="Group 4734">
              <path id="Path_369" data-name="Path 369" d="M510.889,746.75l-6.548-1.3h0q-.949-.263-2.05-.5-.55-.12-1.137-.233l-.6-.107c-.2-.035-.412-.036-.622-.056-.422-.038-.852-.032-1.294-.051s-.895-.023-1.358-.029q-1.391-.025-2.9-.035c-4.036-.033-8.713-.036-13.9-.025l-16.971.077-4.631.034-2.365.021-1.195.014-1.2.036a33.527,33.527,0,0,0-4.856.545,23.7,23.7,0,0,0-2.417.583,13.753,13.753,0,0,0-2.349.907l.029-.009-3.477.288.045.13c.118-.075.248-.156.38-.233a27.311,27.311,0,0,1,3.247-1.626,24.148,24.148,0,0,1,3.386-1.167,25.7,25.7,0,0,1,3.5-.483c1.167-.1,2.327-.168,3.477-.23,4.6-.224,9.049-.3,13.284-.362l12.026-.162c3.766-.043,7.274-.03,10.477.027s6.1.175,8.633.374c1.269.092,2.444.232,3.521.39l.784.15c.127.027.255.045.378.078l.361.1a12.435,12.435,0,0,1,1.335.467,38.7,38.7,0,0,1,3.758,1.691c.418.217.732.392.942.512l.317.182s-.1-.071-.31-.194-.52-.3-.936-.524a37.014,37.014,0,0,0-3.751-1.717,12.38,12.38,0,0,0-1.337-.475l-.364-.107c-.123-.034-.251-.052-.379-.08l-.786-.154c-1.079-.163-2.256-.307-3.525-.4-2.538-.206-5.435-.326-8.638-.4s-6.712-.082-10.48-.045l-12.026.149c-4.235.061-8.682.132-13.288.354-1.151.061-2.313.132-3.482.229a25.861,25.861,0,0,0-3.519.486,24.271,24.271,0,0,0-3.406,1.174,27.39,27.39,0,0,0-3.265,1.635c-.134.079-.264.159-.386.237l-.241.154.286-.024,3.477-.288h.014l.015-.008a13.673,13.673,0,0,1,2.319-.895,23.5,23.5,0,0,1,2.4-.58,33.394,33.394,0,0,1,4.835-.544l1.2-.037,1.194-.014,2.365-.022,4.63-.037,16.97-.094c5.189-.017,9.866-.024,13.9,0q1.513.006,2.9.028c.463.005.916.011,1.357.025s.875.011,1.29.047c.208.019.415.019.616.053l.6.105q.586.109,1.136.228c.732.159,1.417.324,2.048.5h0Z" transform="translate(-440.769 -742.638)" fill="#263238"/>
            </g>
          </g>
        </g>
        <g id="Group_4737" data-name="Group 4737" transform="translate(0 43.873)">
          <path id="Path_370" data-name="Path 370" d="M748.859,915.726c-.757-.085.134-9.6.554-9.581.313.016-13.644-2.85-14.237-2.82a.913.913,0,0,0-.718.42s-1.477,4.781-.985,5.991,10.647,5.725,11.447,5.991A19.047,19.047,0,0,0,748.859,915.726Z" transform="translate(-733.373 -903.324)" fill="#263238"/>
        </g>
        <g id="Group_4739" data-name="Group 4739" transform="translate(36.504 6.826)">
          <g id="Group_4738" data-name="Group 4738" transform="translate(0)">
            <path id="Path_371" data-name="Path 371" d="M628.353,799.453a.394.394,0,0,0-.014-.088l-.056-.254-.229-.972-.852-3.573c-.356-1.51-.78-3.307-1.215-5.31-.21-1-.447-2.056-.6-3.154a2.485,2.485,0,0,1-.023-.4.5.5,0,0,1,.056-.186l.078-.191.361-.775.767-1.575c2.1-4.243,4.039-8.065,5.43-10.837l1.647-3.284.442-.9.112-.234a.414.414,0,0,0,.034-.082.441.441,0,0,0-.047.076l-.125.228-.466.884-1.688,3.263c-1.415,2.761-3.37,6.575-5.469,10.82l-.767,1.577-.362.78-.082.2a.589.589,0,0,0-.063.216,2.534,2.534,0,0,0,.024.434c.152,1.113.392,2.162.606,3.166.443,2,.876,3.8,1.245,5.306s.679,2.724.9,3.563l.255.966.07.25A.437.437,0,0,0,628.353,799.453Z" transform="translate(-625.225 -767.637)" fill="#263238"/>
          </g>
        </g>
        <g id="Group_4745" data-name="Group 4745" transform="translate(26.28 5.3)">
          <g id="Group_4740" data-name="Group 4740" transform="translate(0.273 0.272)">
            <path id="Path_372" data-name="Path 372" d="M426.271,782.272c-.212-.081-20.282-14.972-29.67-16.833a128.408,128.408,0,0,0-28.325-2.347c-9.468.243-38.036,2.023-38.036,2.023l-4.856,5.179,11.815,7.2Z" transform="translate(-325.385 -763.047)" fill="#455a64"/>
          </g>
          <g id="Group_4741" data-name="Group 4741" transform="translate(0.932 0.272)" opacity="0.2">
            <path id="Path_373" data-name="Path 373" d="M435.766,765.439c4.826.957,12.474,5.357,18.8,9.418-5.677-1.013-26.357-4.435-37.73-5.264-13.12-.957-51.624,0-51.624,0l4.2-4.477s28.567-1.78,38.036-2.023A128.407,128.407,0,0,1,435.766,765.439Z" transform="translate(-365.209 -763.047)" fill="#fff"/>
          </g>
          <g id="Group_4742" data-name="Group 4742" transform="translate(45.7 0.566)">
            <path id="Path_374" data-name="Path 374" d="M497.368,764.12l4.856,16.5-8.816-.489-1.056-16.015Z" transform="translate(-492.352 -764.12)" fill="#263238"/>
          </g>
          <g id="Group_4743" data-name="Group 4743" transform="translate(11.591 1.526)">
            <path id="Path_375" data-name="Path 375" d="M627.979,781.177c-.185-.185-.984-7.57-.984-7.57s3.323-5.97,3.139-5.97H627.61s-6.339,13.171-6.216,13.171S627.979,781.177,627.979,781.177Z" transform="translate(-621.392 -767.637)" fill="#263238"/>
          </g>
          <g id="Group_4744" data-name="Group 4744" transform="translate(0)">
            <path id="Path_376" data-name="Path 376" d="M425.544,781.819a.273.273,0,0,0,.127-.514c-.058-.036-.339-.238-.694-.49-13.489-9.615-23.534-15.276-29.051-16.369a129.143,129.143,0,0,0-28.384-2.352c-9.365.24-37.76,2.006-38.046,2.023a.275.275,0,0,0-.182.086l-4.856,5.179a.273.273,0,0,0,.057.42l11.815,7.2a.276.276,0,0,0,.128.04l89.071,4.774Zm-54.52-19.224a127.651,127.651,0,0,1,24.8,2.386c5.356,1.062,15.578,6.829,28.788,16.242l-88.052-4.72-11.47-6.992,4.552-4.855c1.937-.12,28.856-1.784,37.918-2.016Q369.294,762.595,371.024,762.595Z" transform="translate(-324.384 -762.049)" fill="#e0e0e0"/>
          </g>
        </g>
        <g id="Group_4747" data-name="Group 4747" transform="translate(121.525 20.882)">
          <g id="Group_4746" data-name="Group 4746" transform="translate(0)">
            <path id="Path_377" data-name="Path 377" d="M337.2,857.883a.609.609,0,0,0,.015-.1l.03-.3c.024-.269.058-.652.1-1.141.082-1,.2-2.431.346-4.2.284-3.544.667-8.441,1.067-13.851.243-3.324.473-6.454.632-9.2a7.23,7.23,0,0,0,.008-1.02,6.955,6.955,0,0,0-.191-.961,18.014,18.014,0,0,0-.57-1.731c-.411-1.079-.829-2.022-1.208-2.821l0,.008-.64-2.549-.175-.675-.048-.173a.258.258,0,0,0-.02-.057.237.237,0,0,0,.009.06l.037.176.154.68.6,2.557v0l0,0c.37.8.779,1.745,1.182,2.823.2.539.4,1.113.557,1.724a6.9,6.9,0,0,1,.184.944,7.188,7.188,0,0,1-.013,1c-.169,2.74-.406,5.87-.649,9.194-.4,5.407-.762,10.3-1.025,13.854-.127,1.767-.229,3.2-.3,4.2l-.075,1.143c-.007.125-.012.223-.016.3A.509.509,0,0,0,337.2,857.883Z" transform="translate(-336.546 -819.121)" fill="#263238"/>
          </g>
        </g>
        <g id="Group_4748" data-name="Group 4748" transform="translate(50.507 53.977)" opacity="0.3">
          <path id="Path_378" data-name="Path 378" d="M414.324,942.472,341.9,940.332l1.28,1.58,68.884,2.2Z" transform="translate(-341.901 -940.332)"/>
        </g>
        <g id="Group_4804" data-name="Group 4804" transform="translate(127.108 36.908)">
          <g id="Group_4759" data-name="Group 4759" transform="translate(0 0)">
            <g id="Group_4758" data-name="Group 4758">
              <g id="Group_4757" data-name="Group 4757">
                <g id="Group_4756" data-name="Group 4756">
                  <g id="Group_4755" data-name="Group 4755">
                    <g id="Group_4754" data-name="Group 4754">
                      <g id="Group_4753" data-name="Group 4753">
                        <g id="Group_4752" data-name="Group 4752">
                          <g id="Group_4751" data-name="Group 4751">
                            <g id="Group_4750" data-name="Group 4750">
                              <g id="Group_4749" data-name="Group 4749">
                                <ellipse id="Ellipse_23" data-name="Ellipse 23" cx="15.229" cy="15.229" rx="15.229" ry="15.229" transform="translate(1.246 31.679) rotate(-92.344)" fill="#263238"/>
                              </g>
                            </g>
                          </g>
                        </g>
                      </g>
                    </g>
                  </g>
                </g>
              </g>
            </g>
          </g>
          <g id="Group_4770" data-name="Group 4770" transform="translate(0.611 15.581)">
            <g id="Group_4769" data-name="Group 4769" transform="translate(0)">
              <g id="Group_4768" data-name="Group 4768" transform="translate(0)">
                <g id="Group_4767" data-name="Group 4767">
                  <g id="Group_4766" data-name="Group 4766">
                    <g id="Group_4765" data-name="Group 4765">
                      <g id="Group_4764" data-name="Group 4764">
                        <g id="Group_4763" data-name="Group 4763">
                          <g id="Group_4762" data-name="Group 4762">
                            <g id="Group_4761" data-name="Group 4761">
                              <g id="Group_4760" data-name="Group 4760">
                                <path id="Path_379" data-name="Path 379" d="M243.259,934.88c0,.013,0,.026,0,.039a15.23,15.23,0,0,1-30.456.439c0-.013,0-.026,0-.039Z" transform="translate(-212.806 -934.88)" fill="#263238"/>
                              </g>
                            </g>
                          </g>
                        </g>
                      </g>
                    </g>
                  </g>
                </g>
              </g>
            </g>
          </g>
          <g id="Group_4781" data-name="Group 4781" transform="translate(5.147 5.147)">
            <g id="Group_4780" data-name="Group 4780" transform="translate(0)">
              <g id="Group_4779" data-name="Group 4779" transform="translate(0)">
                <g id="Group_4778" data-name="Group 4778">
                  <g id="Group_4777" data-name="Group 4777">
                    <g id="Group_4776" data-name="Group 4776">
                      <g id="Group_4775" data-name="Group 4775">
                        <g id="Group_4774" data-name="Group 4774">
                          <g id="Group_4773" data-name="Group 4773">
                            <g id="Group_4772" data-name="Group 4772">
                              <g id="Group_4771" data-name="Group 4771">
                                <path id="Path_380" data-name="Path 380" d="M250.808,907.2a10.692,10.692,0,1,1-10.845-10.537A10.692,10.692,0,0,1,250.808,907.2Z" transform="translate(-229.425 -896.667)" fill="#fafafa"/>
                              </g>
                            </g>
                          </g>
                        </g>
                      </g>
                    </g>
                  </g>
                </g>
              </g>
            </g>
          </g>
          <g id="Group_4792" data-name="Group 4792" transform="translate(5.147 5.147)">
            <g id="Group_4791" data-name="Group 4791" transform="translate(0)">
              <g id="Group_4790" data-name="Group 4790" transform="translate(0)">
                <g id="Group_4789" data-name="Group 4789">
                  <g id="Group_4788" data-name="Group 4788">
                    <g id="Group_4787" data-name="Group 4787">
                      <g id="Group_4786" data-name="Group 4786">
                        <g id="Group_4785" data-name="Group 4785">
                          <g id="Group_4784" data-name="Group 4784">
                            <g id="Group_4783" data-name="Group 4783">
                              <g id="Group_4782" data-name="Group 4782">
                                <path id="Path_381" data-name="Path 381" d="M239.967,896.668A10.692,10.692,0,0,1,250.812,907.2l-21.382.308A10.692,10.692,0,0,1,239.967,896.668Z" transform="translate(-229.429 -896.667)" fill="#e0e0e0"/>
                              </g>
                            </g>
                          </g>
                        </g>
                      </g>
                    </g>
                  </g>
                </g>
              </g>
            </g>
          </g>
          <g id="Group_4803" data-name="Group 4803" transform="translate(9.326 9.326)">
            <g id="Group_4802" data-name="Group 4802" transform="translate(0)">
              <g id="Group_4801" data-name="Group 4801" transform="translate(0)">
                <g id="Group_4800" data-name="Group 4800">
                  <g id="Group_4799" data-name="Group 4799">
                    <g id="Group_4798" data-name="Group 4798">
                      <g id="Group_4797" data-name="Group 4797">
                        <g id="Group_4796" data-name="Group 4796">
                          <g id="Group_4795" data-name="Group 4795">
                            <g id="Group_4794" data-name="Group 4794">
                              <g id="Group_4793" data-name="Group 4793">
                                <path id="Path_382" data-name="Path 382" d="M257.757,918.393a6.513,6.513,0,1,1-6.606-6.419A6.513,6.513,0,0,1,257.757,918.393Z" transform="translate(-244.731 -911.974)" fill="#263238"/>
                              </g>
                            </g>
                          </g>
                        </g>
                      </g>
                    </g>
                  </g>
                </g>
              </g>
            </g>
          </g>
        </g>
        <g id="Group_4860" data-name="Group 4860" transform="translate(15.531 36.908)">
          <g id="Group_4815" data-name="Group 4815" transform="translate(0 0)">
            <g id="Group_4814" data-name="Group 4814" transform="translate(0)">
              <g id="Group_4813" data-name="Group 4813">
                <g id="Group_4812" data-name="Group 4812" transform="translate(0)">
                  <g id="Group_4811" data-name="Group 4811" transform="translate(0)">
                    <g id="Group_4810" data-name="Group 4810" transform="translate(0)">
                      <g id="Group_4809" data-name="Group 4809">
                        <g id="Group_4808" data-name="Group 4808">
                          <g id="Group_4807" data-name="Group 4807" transform="translate(0)">
                            <g id="Group_4806" data-name="Group 4806" transform="translate(0)">
                              <g id="Group_4805" data-name="Group 4805">
                                <ellipse id="Ellipse_24" data-name="Ellipse 24" cx="15.229" cy="15.229" rx="15.229" ry="15.229" transform="matrix(-0.041, -0.999, 0.999, -0.041, 1.244, 31.678)" fill="#263238"/>
                              </g>
                            </g>
                          </g>
                        </g>
                      </g>
                    </g>
                  </g>
                </g>
              </g>
            </g>
          </g>
          <g id="Group_4826" data-name="Group 4826" transform="translate(0.611 15.58)">
            <g id="Group_4825" data-name="Group 4825" transform="translate(0)">
              <g id="Group_4824" data-name="Group 4824" transform="translate(0)">
                <g id="Group_4823" data-name="Group 4823">
                  <g id="Group_4822" data-name="Group 4822">
                    <g id="Group_4821" data-name="Group 4821">
                      <g id="Group_4820" data-name="Group 4820">
                        <g id="Group_4819" data-name="Group 4819">
                          <g id="Group_4818" data-name="Group 4818">
                            <g id="Group_4817" data-name="Group 4817">
                              <g id="Group_4816" data-name="Group 4816">
                                <path id="Path_383" data-name="Path 383" d="M651.92,934.88c0,.013,0,.026,0,.039a15.229,15.229,0,0,1-30.456.439c0-.013,0-.026,0-.039Z" transform="translate(-621.467 -934.88)" fill="#263238"/>
                              </g>
                            </g>
                          </g>
                        </g>
                      </g>
                    </g>
                  </g>
                </g>
              </g>
            </g>
          </g>
          <g id="Group_4837" data-name="Group 4837" transform="translate(5.147 5.147)">
            <g id="Group_4836" data-name="Group 4836" transform="translate(0)">
              <g id="Group_4835" data-name="Group 4835" transform="translate(0)">
                <g id="Group_4834" data-name="Group 4834">
                  <g id="Group_4833" data-name="Group 4833">
                    <g id="Group_4832" data-name="Group 4832">
                      <g id="Group_4831" data-name="Group 4831">
                        <g id="Group_4830" data-name="Group 4830">
                          <g id="Group_4829" data-name="Group 4829">
                            <g id="Group_4828" data-name="Group 4828">
                              <g id="Group_4827" data-name="Group 4827">
                                <path id="Path_384" data-name="Path 384" d="M659.469,907.2a10.692,10.692,0,1,1-10.845-10.537A10.692,10.692,0,0,1,659.469,907.2Z" transform="translate(-638.086 -896.667)" fill="#fafafa"/>
                              </g>
                            </g>
                          </g>
                        </g>
                      </g>
                    </g>
                  </g>
                </g>
              </g>
            </g>
          </g>
          <g id="Group_4848" data-name="Group 4848" transform="translate(5.147 5.147)">
            <g id="Group_4847" data-name="Group 4847" transform="translate(0)">
              <g id="Group_4846" data-name="Group 4846" transform="translate(0)">
                <g id="Group_4845" data-name="Group 4845">
                  <g id="Group_4844" data-name="Group 4844">
                    <g id="Group_4843" data-name="Group 4843">
                      <g id="Group_4842" data-name="Group 4842">
                        <g id="Group_4841" data-name="Group 4841">
                          <g id="Group_4840" data-name="Group 4840">
                            <g id="Group_4839" data-name="Group 4839">
                              <g id="Group_4838" data-name="Group 4838">
                                <path id="Path_385" data-name="Path 385" d="M648.628,896.668A10.692,10.692,0,0,1,659.473,907.2l-21.382.308A10.692,10.692,0,0,1,648.628,896.668Z" transform="translate(-638.09 -896.667)" fill="#e0e0e0"/>
                              </g>
                            </g>
                          </g>
                        </g>
                      </g>
                    </g>
                  </g>
                </g>
              </g>
            </g>
          </g>
          <g id="Group_4859" data-name="Group 4859" transform="translate(9.326 9.326)">
            <g id="Group_4858" data-name="Group 4858" transform="translate(0)">
              <g id="Group_4857" data-name="Group 4857" transform="translate(0)">
                <g id="Group_4856" data-name="Group 4856">
                  <g id="Group_4855" data-name="Group 4855">
                    <g id="Group_4854" data-name="Group 4854">
                      <g id="Group_4853" data-name="Group 4853">
                        <g id="Group_4852" data-name="Group 4852">
                          <g id="Group_4851" data-name="Group 4851">
                            <g id="Group_4850" data-name="Group 4850">
                              <g id="Group_4849" data-name="Group 4849">
                                <path id="Path_386" data-name="Path 386" d="M666.418,918.393a6.513,6.513,0,1,1-6.606-6.419A6.513,6.513,0,0,1,666.418,918.393Z" transform="translate(-653.393 -911.974)" fill="#263238"/>
                              </g>
                            </g>
                          </g>
                        </g>
                      </g>
                    </g>
                  </g>
                </g>
              </g>
            </g>
          </g>
        </g>
        <g id="Group_4862" data-name="Group 4862" transform="translate(125.267 33.118)">
          <g id="Group_4861" data-name="Group 4861" transform="translate(0)">
            <path id="Path_387" data-name="Path 387" d="M198.2,873.878a.707.707,0,0,0,.05-.1l.135-.311a11.291,11.291,0,0,1,.611-1.149,14.28,14.28,0,0,1,3.185-3.542,20.837,20.837,0,0,1,6.15-3.471,21.064,21.064,0,0,1,8.543-1.173,22.661,22.661,0,0,1,8.337,2.256,23.569,23.569,0,0,1,5.806,4.039,25.781,25.781,0,0,1,1.868,1.988c.251.314.489.6.7.877s.4.527.554.761l.422.623.293.467.182.286a.058.058,0,1,0,.013-.007l-.17-.294c-.076-.128-.167-.289-.282-.475l-.412-.631c-.156-.237-.346-.489-.545-.771s-.44-.57-.689-.887a25.076,25.076,0,0,0-1.859-2.01,23.4,23.4,0,0,0-5.818-4.084,22.638,22.638,0,0,0-8.385-2.28,21.069,21.069,0,0,0-8.6,1.191,20.745,20.745,0,0,0-6.17,3.517,14.029,14.029,0,0,0-3.169,3.591A7.768,7.768,0,0,0,198.2,873.878Z" transform="translate(-198.196 -863.934)" fill="#263238"/>
          </g>
        </g>
        <g id="Group_4864" data-name="Group 4864" transform="translate(12.672 31.692)">
          <g id="Group_4863" data-name="Group 4863" transform="translate(0)">
            <path id="Path_388" data-name="Path 388" d="M610.584,868.655a.688.688,0,0,0,.05-.1l.134-.311a11.286,11.286,0,0,1,.611-1.149,14.286,14.286,0,0,1,3.185-3.542,20.84,20.84,0,0,1,6.15-3.471,21.065,21.065,0,0,1,8.543-1.173,22.66,22.66,0,0,1,8.337,2.256A23.556,23.556,0,0,1,643.4,865.2a25.723,25.723,0,0,1,1.868,1.988c.251.314.49.6.7.877s.4.527.554.761l.422.623.293.467.182.286a.723.723,0,0,0,.066.1.674.674,0,0,0-.054-.1l-.17-.294c-.076-.128-.167-.289-.282-.475l-.412-.631c-.156-.237-.346-.489-.545-.771s-.44-.57-.689-.887a25.148,25.148,0,0,0-1.859-2.01,23.417,23.417,0,0,0-5.817-4.083,22.64,22.64,0,0,0-8.385-2.28,21.067,21.067,0,0,0-8.6,1.191,20.738,20.738,0,0,0-6.17,3.517,14.026,14.026,0,0,0-3.169,3.591A7.764,7.764,0,0,0,610.584,868.655Z" transform="translate(-610.584 -858.711)" fill="#263238"/>
          </g>
        </g>
        <g id="Group_4866" data-name="Group 4866" transform="translate(50.507 44.99)">
          <g id="Group_4865" data-name="Group 4865" transform="translate(0)">
            <path id="Path_389" data-name="Path 389" d="M344.812,907.419c0,.039,16.032.86,35.809,1.833s35.817,1.73,35.819,1.691-16.029-.86-35.812-1.833S344.814,907.38,344.812,907.419Z" transform="translate(-344.812 -907.418)" fill="#263238"/>
          </g>
        </g>
        <g id="Group_4867" data-name="Group 4867" transform="translate(128.305 21.87)">
          <path id="Path_390" data-name="Path 390" d="M309.995,822.883l-4.589-.145.812.532Z" transform="translate(-305.406 -822.739)" fill="#263238"/>
        </g>
        <g id="Group_4879" data-name="Group 4879" transform="translate(108.667 17.586)">
          <g id="Group_4868" data-name="Group 4868" transform="translate(1.999 5.926)">
            <path id="Path_391" data-name="Path 391" d="M367.758,828.754c-.025.065.928,2.165.928,2.165l-.71.665h-3.461s-2.728-2.908-2.636-2.829,5.73,0,5.73,0" transform="translate(-361.877 -828.752)" fill="#b15f27"/>
          </g>
          <g id="Group_4878" data-name="Group 4878" transform="translate(0)">
            <g id="Group_4873" data-name="Group 4873" transform="translate(0)">
              <g id="Group_4870" data-name="Group 4870" transform="translate(0.072 0.075)">
                <path id="Path_393" data-name="Path 393" d="M371.123,810.859a16.5,16.5,0,0,1-.827,2.505,1.07,1.07,0,0,1-1,.693h-6.447l-.263-4.552,2.145-2.182S370.332,809.278,371.123,810.859Z" transform="translate(-362.582 -807.322)" fill="#ffa96e"/>
              </g>
              <g id="Group_4872" data-name="Group 4872">
                <g id="Group_4871" data-name="Group 4871">
                  <path id="Path_394" data-name="Path 394" d="M371.173,810.659a1.459,1.459,0,0,0-.307-.446,5.944,5.944,0,0,0-1.2-.929,28.033,28.033,0,0,0-4.863-2.222l-.038-.014-.029.029-2.148,2.179-.022.022,0,.031c.042.721.084,1.472.128,2.239.046.793.092,1.568.135,2.314l0,.066h.066l4.118-.009,1.768-.007.405,0a1.723,1.723,0,0,0,.4-.029,1.125,1.125,0,0,0,.633-.4,2.146,2.146,0,0,0,.281-.61l.2-.553c.122-.346.223-.643.3-.887a1.983,1.983,0,0,0,.174-.771,3.378,3.378,0,0,1-.221.755l-.321.879-.208.549a2.1,2.1,0,0,1-.276.582,1.032,1.032,0,0,1-.583.359,1.644,1.644,0,0,1-.377.022l-.405,0-1.768-.007-4.118-.009.07.066c-.043-.746-.087-1.521-.133-2.314L362.7,809.3l-.02.053,2.141-2.186-.067.016a29.668,29.668,0,0,1,4.866,2.167,6.334,6.334,0,0,1,1.215.891A2.9,2.9,0,0,1,371.173,810.659Z" transform="translate(-362.561 -807.048)" fill="#263238"/>
                </g>
              </g>
            </g>
            <g id="Group_4875" data-name="Group 4875" transform="translate(0.143 2.209)">
              <g id="Group_4874" data-name="Group 4874" transform="translate(0)">
                <path id="Path_395" data-name="Path 395" d="M362.408,815.143a1.556,1.556,0,0,0,.327.1c.212.054.521.125.9.208.765.167,1.826.377,3,.579s2.248.356,3.025.453c.389.049.7.084.921.1a.171.171,0,1,0,.007-.055l-.914-.149c-.772-.123-1.839-.292-3.015-.494s-2.238-.4-3.008-.537l-.912-.163A1.576,1.576,0,0,0,362.408,815.143Z" transform="translate(-362.408 -815.14)" fill="#263238"/>
              </g>
            </g>
            <g id="Group_4877" data-name="Group 4877" transform="translate(6.977 6.759)">
              <g id="Group_4876" data-name="Group 4876" transform="translate(0)">
                <path id="Path_396" data-name="Path 396" d="M364.61,831.806a9.491,9.491,0,0,0,1.079,2.052,9.5,9.5,0,0,0-1.079-2.052Z" transform="translate(-364.606 -831.805)" fill="#263238"/>
              </g>
            </g>
          </g>
        </g>
        <g id="Group_4881" data-name="Group 4881" transform="translate(79.457 23.922)">
          <g id="Group_4880" data-name="Group 4880" transform="translate(0)">
            <path id="Path_397" data-name="Path 397" d="M402.372,830.259c0,.039,6.032.4,13.477.8s13.484.694,13.486.654-6.031-.4-13.478-.8S402.374,830.22,402.372,830.259Z" transform="translate(-402.372 -830.255)" fill="#fff"/>
          </g>
        </g>
        <g id="Group_4883" data-name="Group 4883" transform="translate(50.408 22.338)">
          <g id="Group_4882" data-name="Group 4882" transform="translate(0)">
            <path id="Path_398" data-name="Path 398" d="M516.759,824.458c0,.039,5.544.367,12.385.733s12.392.631,12.395.591-5.543-.367-12.387-.733S516.761,824.418,516.759,824.458Z" transform="translate(-516.759 -824.454)" fill="#fff"/>
          </g>
        </g>
        <g id="Group_4885" data-name="Group 4885" transform="translate(84.062 3.699)">
          <g id="Group_4884" data-name="Group 4884" transform="translate(0)">
            <path id="Path_399" data-name="Path 399" d="M429.787,756.188a.632.632,0,0,0,.151.029l.434.056,1.6.189c1.35.16,3.214.392,5.267.687s3.908.6,5.248.825l1.588.269.433.069a.638.638,0,0,0,.153.015.6.6,0,0,0-.147-.043l-.428-.1c-.372-.08-.912-.187-1.58-.313-1.337-.253-3.19-.571-5.245-.867s-3.923-.512-5.276-.646c-.677-.067-1.225-.116-1.6-.145l-.437-.029A.614.614,0,0,0,429.787,756.188Z" transform="translate(-429.787 -756.184)" fill="#fff"/>
          </g>
        </g>
        <g id="Group_4887" data-name="Group 4887" transform="translate(112.947 19.295)">
          <g id="Group_4886" data-name="Group 4886" transform="translate(0)">
            <path id="Path_400" data-name="Path 400" d="M367.1,813.311c-.012.04.7.285,1.558.658s1.524.727,1.544.691a9.006,9.006,0,0,0-3.1-1.35Z" transform="translate(-367.099 -813.307)" fill="#fff"/>
          </g>
        </g>
        <g id="Group_4889" data-name="Group 4889" transform="translate(136.873 22.719)">
          <g id="Group_4888" data-name="Group 4888" transform="translate(0)">
            <path id="Path_401" data-name="Path 401" d="M190.228,825.847a.281.281,0,0,0,.071.016l.211.034.811.117c.7.1,1.723.243,2.98.434,2.514.381,5.978.972,9.774,1.775s7.2,1.671,9.655,2.342c1.227.335,2.217.614,2.9.811l.788.222.206.054a.037.037,0,1,0,0-.014l-.2-.068-.781-.248c-.678-.215-1.665-.508-2.889-.855-2.447-.7-5.853-1.578-9.653-2.384s-7.269-1.379-9.789-1.735c-1.259-.179-2.281-.311-2.988-.39l-.814-.09-.212-.02A.287.287,0,0,0,190.228,825.847Z" transform="translate(-190.228 -825.846)" fill="#fff"/>
          </g>
        </g>
        <g id="Group_4891" data-name="Group 4891" transform="translate(140.701 34.011)">
          <g id="Group_4890" data-name="Group 4890" transform="translate(0)">
            <path id="Path_402" data-name="Path 402" d="M217.255,867.25a.842.842,0,0,0,.18.013l.515.008c.224,0,.5,0,.814.023s.678.025,1.075.07l.624.059c.217.021.44.06.673.09.466.055.958.156,1.476.252a24.091,24.091,0,0,1,6.44,2.307c.462.255.905.489,1.3.742.2.124.4.236.577.357l.519.351c.336.216.619.441.875.628s.471.356.643.5l.4.321a.09.09,0,1,0,.019-.022l-.386-.341c-.167-.149-.376-.327-.63-.519s-.533-.425-.866-.648l-.516-.36c-.18-.124-.377-.239-.576-.366-.395-.259-.838-.5-1.3-.758a23.176,23.176,0,0,0-6.475-2.319c-.522-.093-1.017-.19-1.486-.241-.234-.028-.459-.064-.677-.083l-.627-.05c-.4-.039-.762-.038-1.08-.049s-.592-.008-.816,0l-.515.019A.876.876,0,0,0,217.255,867.25Z" transform="translate(-217.255 -867.206)" fill="#fff"/>
          </g>
        </g>
        <g id="Group_4893" data-name="Group 4893" transform="translate(29.525 32.575)">
          <g id="Group_4892" data-name="Group 4892" transform="translate(0)">
            <path id="Path_403" data-name="Path 403" d="M625.334,861.954a.9.9,0,0,0,.18.02l.517.031c.225.009.5.024.817.06s.681.055,1.078.12l.624.088c.217.031.44.081.672.123.466.078.955.2,1.471.325a23.667,23.667,0,0,1,6.35,2.656c.449.282.882.543,1.265.82.193.136.384.26.559.393l.5.383c.325.237.6.481.842.683s.452.386.616.54l.385.347a.874.874,0,0,0,.141.114.846.846,0,0,0-.121-.135l-.367-.367c-.159-.16-.357-.352-.6-.559s-.509-.459-.832-.7l-.5-.392c-.174-.135-.365-.262-.557-.4-.382-.283-.814-.548-1.264-.835a22.806,22.806,0,0,0-6.385-2.671c-.52-.119-1.013-.241-1.482-.314-.234-.039-.458-.086-.677-.115l-.628-.08c-.4-.058-.765-.073-1.084-.1s-.6-.035-.821-.036l-.519,0A.841.841,0,0,0,625.334,861.954Z" transform="translate(-625.334 -861.946)" fill="#fff"/>
          </g>
        </g>
        <g id="Group_4902" data-name="Group 4902" transform="translate(79.675 27.794)">
          <g id="Group_4899" data-name="Group 4899" transform="translate(0)">
            <g id="Group_4894" data-name="Group 4894" transform="translate(1.408)" opacity="0.3">
              <path id="Path_404" data-name="Path 404" d="M472,846.167c0,.956,1.416,1.732,3.164,1.732s3.163-.776,3.163-1.732-1.416-1.732-3.163-1.732S472,845.21,472,846.167Z" transform="translate(-471.998 -844.435)"/>
            </g>
            <g id="Group_4898" data-name="Group 4898" transform="translate(0 0.812)">
              <g id="Group_4895" data-name="Group 4895" transform="translate(0.034 0.071)">
                <path id="Path_405" data-name="Path 405" d="M467.815,849.368h7.377a.848.848,0,0,0,.848-.848h0a.848.848,0,0,0-.848-.848h-7.377a.848.848,0,0,0-.848.848h0A.848.848,0,0,0,467.815,849.368Z" transform="translate(-466.967 -847.671)" fill="#b15f27"/>
              </g>
              <g id="Group_4897" data-name="Group 4897">
                <g id="Group_4896" data-name="Group 4896">
                  <path id="Path_406" data-name="Path 406" d="M467.594,849.178c0-.008-.071,0-.2-.039a.844.844,0,0,1-.459-.319.818.818,0,0,1-.069-.842.8.8,0,0,1,.387-.375,1.339,1.339,0,0,1,.617-.071l7.1.021a.778.778,0,0,1,.142,1.543,3.592,3.592,0,0,1-.463.014l-.923,0-3.192.015-2.152.023-.585.013a.1.1,0,1,0,0,.029l.585.013,2.152.023,3.192.015.923,0a3.611,3.611,0,0,0,.488-.015.918.918,0,0,0-.167-1.821l-7.1.021c-.115,0-.221,0-.336.005a.89.89,0,0,0-.74.506.878.878,0,0,0,.1.91.845.845,0,0,0,.5.314A.581.581,0,0,0,467.594,849.178Z" transform="translate(-466.712 -847.411)" fill="#fff" opacity="0.28"/>
                </g>
              </g>
            </g>
          </g>
          <g id="Group_4901" data-name="Group 4901" transform="translate(1.626 0.992)">
            <g id="Group_4900" data-name="Group 4900" transform="translate(0)">
              <path id="Path_407" data-name="Path 407" d="M470.876,848.14c0,.039,1.436.071,3.207.071s3.208-.032,3.208-.071-1.436-.071-3.208-.071S470.876,848.1,470.876,848.14Z" transform="translate(-470.876 -848.069)" fill="#fff"/>
            </g>
          </g>
        </g>
        <g id="Group_4911" data-name="Group 4911" transform="translate(40.462 27.794)">
          <g id="Group_4908" data-name="Group 4908" transform="translate(0)">
            <g id="Group_4903" data-name="Group 4903" transform="translate(1.408)" opacity="0.3">
              <path id="Path_408" data-name="Path 408" d="M615.616,846.167c0,.956,1.416,1.732,3.164,1.732s3.163-.776,3.163-1.732-1.416-1.732-3.163-1.732S615.616,845.21,615.616,846.167Z" transform="translate(-615.616 -844.435)"/>
            </g>
            <g id="Group_4907" data-name="Group 4907" transform="translate(0 0.812)">
              <g id="Group_4904" data-name="Group 4904" transform="translate(0.034 0.071)">
                <path id="Path_409" data-name="Path 409" d="M611.433,849.368h7.378a.848.848,0,0,0,.848-.848h0a.848.848,0,0,0-.848-.848h-7.378a.848.848,0,0,0-.848.848h0A.848.848,0,0,0,611.433,849.368Z" transform="translate(-610.585 -847.671)" fill="#b15f27"/>
              </g>
              <g id="Group_4906" data-name="Group 4906">
                <g id="Group_4905" data-name="Group 4905">
                  <path id="Path_410" data-name="Path 410" d="M611.213,849.178c0-.008-.071,0-.2-.039a.844.844,0,0,1-.459-.319.819.819,0,0,1-.07-.842.8.8,0,0,1,.387-.375,1.339,1.339,0,0,1,.617-.071l7.1.021a.778.778,0,0,1,.142,1.543,3.6,3.6,0,0,1-.463.014l-.923,0-3.192.015-2.152.023-.585.013a.1.1,0,1,0,0,.029l.585.013,2.152.023,3.192.015.923,0a3.613,3.613,0,0,0,.488-.015.918.918,0,0,0-.167-1.821l-7.1.021c-.115,0-.221,0-.336.005a.889.889,0,0,0-.74.506.878.878,0,0,0,.1.91.847.847,0,0,0,.5.314A.581.581,0,0,0,611.213,849.178Z" transform="translate(-610.33 -847.411)" fill="#fff" opacity="0.28"/>
                </g>
              </g>
            </g>
          </g>
          <g id="Group_4910" data-name="Group 4910" transform="translate(0.544 1.069)">
            <g id="Group_4909" data-name="Group 4909" transform="translate(0)">
              <path id="Path_411" data-name="Path 411" d="M612.129,848.421c0,.039,1.823.071,4.071.071s4.072-.032,4.072-.071-1.823-.071-4.072-.071S612.129,848.382,612.129,848.421Z" transform="translate(-612.129 -848.35)" fill="#fff"/>
            </g>
          </g>
        </g>
      </g>
    </g>
    <path id="Path_492" data-name="Path 492" d="M480,1298.881H720.984v51.344" transform="translate(0 3.775)" fill="none" stroke="#889f9f" stroke-width="1"/>
    <g id="Group_4946" data-name="Group 4946">
      <circle id="Ellipse_26" data-name="Ellipse 26" cx="32" cy="32" r="32" transform="translate(689 1328)" fill="#39c9ff"/>
      <g id="Group_4945" data-name="Group 4945" transform="translate(705 1344.31)">
        <path id="Path_496" data-name="Path 496" d="M25.22,8.55a4.28,4.28,0,0,0-4.27-4.27H19.91V6.89a1,1,0,0,1-2,0V4.28H9.3V6.89a1,1,0,0,1-2,0V4.28H6.27A4.28,4.28,0,0,0,2,8.55v.64H25.22ZM6.27,25.9h9.08a8.745,8.745,0,0,1-1.87-4.99,9.255,9.255,0,0,1,11.74-8.92v-.8H2V21.64A4.272,4.272,0,0,0,6.27,25.9ZM9.3,3.69a1,1,0,0,0-2,0v.59h2Zm10.61,0a1,1,0,0,0-2,0v.59h2Z" fill="#fff"/>
        <path id="Path_497" data-name="Path 497" d="M22.74,13.65a7.272,7.272,0,0,0-7.26,7.26c0,2.06,1.64,4.57,4.86,7.48a3.59,3.59,0,0,0,4.8,0C28.37,25.48,30,22.97,30,20.91A7.272,7.272,0,0,0,22.74,13.65Zm0,10.8a3.535,3.535,0,1,1,3.54-3.54,3.538,3.538,0,0,1-3.54,3.54Z" fill="#fff"/>
        <path id="Path_498" data-name="Path 498" d="M22.74,19.38a1.535,1.535,0,1,0,1.54,1.53,1.53,1.53,0,0,0-1.54-1.53Z" fill="#fff"/>
      </g>
    </g>
    <g id="Group_4948" data-name="Group 4948">
      <circle id="Ellipse_27" data-name="Ellipse 27" cx="32" cy="32" r="32" transform="translate(1192 1543)" fill="#ef5252"/>
      <g id="Group_4947" data-name="Group 4947" transform="translate(1205.837 1556.985)">
        <path id="Path_499" data-name="Path 499" d="M24.239,16.153l.773,1.742H6.567l2.145-4.83a.576.576,0,0,1,.525-.341h7.716A8.576,8.576,0,0,1,15.938,11h-6.7a2.3,2.3,0,0,0-2.1,1.365l-.925,2.082H2.575A.575.575,0,0,0,2,15.022V15.8a1.149,1.149,0,0,0,.924,1.127l2.008.4L3.149,21.342v9.193A1.149,1.149,0,0,0,4.3,31.685H7.746a1.149,1.149,0,0,0,1.149-1.149V27.088h13.79v3.448a1.149,1.149,0,0,0,1.149,1.149h3.448a1.149,1.149,0,0,0,1.149-1.149V21.342L26,15.883a8.513,8.513,0,0,1-1.765.27ZM7.746,24.215a1.724,1.724,0,1,1,1.725-1.724A1.724,1.724,0,0,1,7.746,24.215Zm10.342-.575h-4.6a1.149,1.149,0,0,1,0-2.3h4.6a1.149,1.149,0,0,1,0,2.3Zm5.746.575a1.724,1.724,0,1,1,1.725-1.724A1.724,1.724,0,0,1,23.834,24.215Z" transform="translate(0 1.342)" fill="#fff"/>
        <path id="Path_500" data-name="Path 500" d="M32.882,17.445l-5.054-5.053a6.918,6.918,0,1,0-2.437,2.437l5.054,5.053a1.724,1.724,0,1,0,2.438-2.438ZM17.3,8.9a4.6,4.6,0,1,1,4.6,4.6A4.6,4.6,0,0,1,17.3,8.9Z" transform="translate(1.939)" fill="#fff"/>
      </g>
    </g>
    <g id="Group_4950" data-name="Group 4950">
      <circle id="Ellipse_28" data-name="Ellipse 28" cx="32" cy="32" r="32" transform="translate(596 1798)" fill="#f6c627"/>
      <g id="Group_4949" data-name="Group 4949" transform="translate(610 1811.2)">
        <path id="Path_501" data-name="Path 501" d="M22.8,8V2.156a3.568,3.568,0,0,1,1.552.9l4.594,4.594a3.564,3.564,0,0,1,.9,1.552H24A1.2,1.2,0,0,1,22.8,8ZM30,11.6V32a3.6,3.6,0,0,1-3.6,3.6H9.6A3.6,3.6,0,0,1,6,32V5.6A3.6,3.6,0,0,1,9.6,2H20.4V8A3.6,3.6,0,0,0,24,11.6ZM12,24.8A1.2,1.2,0,1,0,10.8,26,1.2,1.2,0,0,0,12,24.8ZM12,20a1.2,1.2,0,1,0-1.2,1.2A1.2,1.2,0,0,0,12,20Zm0-4.8a1.2,1.2,0,1,0-1.2,1.2A1.2,1.2,0,0,0,12,15.2Zm14.4,9.6a1.2,1.2,0,0,0-1.2-1.2H14.4a1.2,1.2,0,0,0,0,2.4H25.2A1.2,1.2,0,0,0,26.4,24.8Zm0-4.8a1.2,1.2,0,0,0-1.2-1.2H14.4a1.2,1.2,0,1,0,0,2.4H25.2A1.2,1.2,0,0,0,26.4,20Zm0-4.8A1.2,1.2,0,0,0,25.2,14H14.4a1.2,1.2,0,0,0,0,2.4H25.2A1.2,1.2,0,0,0,26.4,15.2Z" transform="translate(0 0)" fill="#fff"/>
      </g>
    </g>
    <g id="Group_4952" data-name="Group 4952">
      <circle id="Ellipse_29" data-name="Ellipse 29" cx="32" cy="32" r="32" transform="translate(1087 2022)" fill="#00a827"/>
      <g id="Group_4951" data-name="Group 4951" transform="translate(1102.013 2022.262)">
        <path id="Path_502" data-name="Path 502" d="M26.789,32.4a8.2,8.2,0,1,0,8.2,8.2A8.21,8.21,0,0,0,26.789,32.4Zm4.825,6.875L26.489,44.4a1.025,1.025,0,0,1-1.449,0l-3.075-3.075a1.025,1.025,0,0,1,1.45-1.45l2.35,2.351,4.4-4.4a1.025,1.025,0,1,1,1.449,1.45ZM27.814,16H3.075A3.079,3.079,0,0,0,0,19.075V20.1H30.89V19.075A3.079,3.079,0,0,0,27.814,16ZM0,22.151H30.89V24.2H0Z" fill="#fff"/>
        <path id="Path_503" data-name="Path 503" d="M0,166v11.276a3.079,3.079,0,0,0,3.075,3.075H16.538a10.226,10.226,0,0,1,14.351-9.382V166Zm11.413,10.251H5.125a1.025,1.025,0,1,1,0-2.05h6.287a1.025,1.025,0,1,1,0,2.05Zm0-4.1H5.125a1.025,1.025,0,0,1,0-2.05h6.287a1.025,1.025,0,0,1,0,2.05Z" transform="translate(0 -139.749)" fill="#fff"/>
      </g>
    </g>
    <g id="Group_4953" data-name="Group 4953" transform="translate(1733.49 1815.485)">
      <g id="_08_Destination_Flag_Direction_Gps" data-name="08 Destination Flag, Direction, Gps" transform="translate(0 0)">
        <path id="Path_504" data-name="Path 504" d="M53.948,46.517,42.217,17.174A3.045,3.045,0,0,1,45.051,13H93.8a3.047,3.047,0,0,1,3.047,3.047V64.8A15.235,15.235,0,0,1,81.615,80.035H45.051a3.045,3.045,0,0,1-2.834-4.174Z" transform="translate(-42 -5.577)" fill="#e7343f"/>
        <path id="Path_505" data-name="Path 505" d="M28,23.235V71.988a3.047,3.047,0,0,0,3.047,3.047H73.706a3.047,3.047,0,0,0,3.047-3.047V11.047A3.047,3.047,0,0,0,73.706,8H43.235A15.235,15.235,0,0,0,28,23.235Z" transform="translate(20.756 -15.812)" fill="#ff4a4a"/>
        <path id="Path_506" data-name="Path 506" d="M5,66.282C5,80.756,49.852,84.564,73.558,84.564s68.558-3.809,68.558-18.282S97.264,48,73.558,48,5,51.809,5,66.282Z" transform="translate(25.474 86.07)" fill="#ffdb56"/>
        <path id="Path_507" data-name="Path 507" d="M93.058,48H102.2c-24.376.884-59.417,5.363-59.417,18.282S77.7,83.528,102.2,84.564H93.058c-23.706,0-68.558-3.809-68.558-18.282S69.352,48,93.058,48Z" transform="translate(5.974 86.07)" fill="#ffbc26"/>
        <path id="Path_508" data-name="Path 508" d="M24-6.859v163.21a3.047,3.047,0,0,0,3.047,3.047H39.235a3.047,3.047,0,0,0,3.047-3.047V-6.859A9.141,9.141,0,0,0,33.141-16,9.141,9.141,0,0,0,24-6.859Z" transform="translate(67.415 -4)" fill="#546f7a"/>
        <path id="Path_509" data-name="Path 509" d="M35.141-16a8.44,8.44,0,0,1,3.047.548,9.141,9.141,0,0,0-6.094,8.593v163.21a3.047,3.047,0,0,0,3.047,3.047H29.047A3.047,3.047,0,0,1,26,156.352V-6.859A9.141,9.141,0,0,1,35.141-16Z" transform="translate(65.415 -4)" fill="#334347"/>
        <path id="Path_510" data-name="Path 510" d="M52.47,53H22v6.094H52.47Z" transform="translate(63.321 96.305)" fill="#546f7a"/>
      </g>
    </g>
  </g>
</svg>
